%TF.GenerationSoftware,KiCad,Pcbnew,7.0.7*%
%TF.CreationDate,2024-07-14T10:34:44+05:00*%
%TF.ProjectId,ZXMagic F411,5a584d61-6769-4632-9046-3431312e6b69,rev?*%
%TF.SameCoordinates,Original*%
%TF.FileFunction,Soldermask,Bot*%
%TF.FilePolarity,Negative*%
%FSLAX46Y46*%
G04 Gerber Fmt 4.6, Leading zero omitted, Abs format (unit mm)*
G04 Created by KiCad (PCBNEW 7.0.7) date 2024-07-14 10:34:44*
%MOMM*%
%LPD*%
G01*
G04 APERTURE LIST*
G04 Aperture macros list*
%AMRoundRect*
0 Rectangle with rounded corners*
0 $1 Rounding radius*
0 $2 $3 $4 $5 $6 $7 $8 $9 X,Y pos of 4 corners*
0 Add a 4 corners polygon primitive as box body*
4,1,4,$2,$3,$4,$5,$6,$7,$8,$9,$2,$3,0*
0 Add four circle primitives for the rounded corners*
1,1,$1+$1,$2,$3*
1,1,$1+$1,$4,$5*
1,1,$1+$1,$6,$7*
1,1,$1+$1,$8,$9*
0 Add four rect primitives between the rounded corners*
20,1,$1+$1,$2,$3,$4,$5,0*
20,1,$1+$1,$4,$5,$6,$7,0*
20,1,$1+$1,$6,$7,$8,$9,0*
20,1,$1+$1,$8,$9,$2,$3,0*%
G04 Aperture macros list end*
%ADD10RoundRect,0.101600X-0.850000X-0.850000X0.850000X-0.850000X0.850000X0.850000X-0.850000X0.850000X0*%
%ADD11C,1.903200*%
%ADD12RoundRect,0.101600X-0.800000X-0.800000X0.800000X-0.800000X0.800000X0.800000X-0.800000X0.800000X0*%
%ADD13O,1.803200X1.803200*%
%ADD14RoundRect,0.101600X0.850000X-0.850000X0.850000X0.850000X-0.850000X0.850000X-0.850000X-0.850000X0*%
%ADD15O,1.903200X1.903200*%
%ADD16RoundRect,0.102000X-0.850000X-0.850000X0.850000X-0.850000X0.850000X0.850000X-0.850000X0.850000X0*%
%ADD17C,1.904000*%
%ADD18RoundRect,0.102000X-0.754000X0.754000X-0.754000X-0.754000X0.754000X-0.754000X0.754000X0.754000X0*%
%ADD19C,1.712000*%
%ADD20C,2.154000*%
%ADD21RoundRect,0.102000X0.699000X-0.699000X0.699000X0.699000X-0.699000X0.699000X-0.699000X-0.699000X0*%
%ADD22C,1.602000*%
%ADD23C,3.510000*%
%ADD24C,1.839000*%
%ADD25C,4.420000*%
%ADD26C,3.383200*%
%ADD27RoundRect,0.102000X-0.892500X0.892500X-0.892500X-0.892500X0.892500X-0.892500X0.892500X0.892500X0*%
%ADD28C,1.989000*%
%ADD29RoundRect,0.101600X0.900000X-0.900000X0.900000X0.900000X-0.900000X0.900000X-0.900000X-0.900000X0*%
%ADD30C,2.003200*%
%ADD31O,2.403200X1.403200*%
%ADD32O,1.403200X2.403200*%
%ADD33RoundRect,0.101600X-0.900000X0.900000X-0.900000X-0.900000X0.900000X-0.900000X0.900000X0.900000X0*%
%ADD34C,1.603200*%
%ADD35RoundRect,0.351600X0.925000X-0.412500X0.925000X0.412500X-0.925000X0.412500X-0.925000X-0.412500X0*%
%ADD36RoundRect,0.351600X-0.450000X0.262500X-0.450000X-0.262500X0.450000X-0.262500X0.450000X0.262500X0*%
%ADD37RoundRect,0.351600X0.450000X-0.262500X0.450000X0.262500X-0.450000X0.262500X-0.450000X-0.262500X0*%
%ADD38RoundRect,0.101600X-0.800000X-1.100000X0.800000X-1.100000X0.800000X1.100000X-0.800000X1.100000X0*%
%ADD39RoundRect,0.101600X-0.700000X-0.700000X0.700000X-0.700000X0.700000X0.700000X-0.700000X0.700000X0*%
%ADD40C,1.003200*%
%ADD41RoundRect,0.101600X-0.800000X-0.700000X0.800000X-0.700000X0.800000X0.700000X-0.800000X0.700000X0*%
%ADD42RoundRect,0.101600X-0.350000X-0.800000X0.350000X-0.800000X0.350000X0.800000X-0.350000X0.800000X0*%
%ADD43RoundRect,0.351600X-0.250000X-0.475000X0.250000X-0.475000X0.250000X0.475000X-0.250000X0.475000X0*%
%ADD44RoundRect,0.351600X0.475000X-0.250000X0.475000X0.250000X-0.475000X0.250000X-0.475000X-0.250000X0*%
%ADD45RoundRect,0.351600X0.262500X0.450000X-0.262500X0.450000X-0.262500X-0.450000X0.262500X-0.450000X0*%
%ADD46RoundRect,0.351600X-0.262500X-0.450000X0.262500X-0.450000X0.262500X0.450000X-0.262500X0.450000X0*%
%ADD47RoundRect,0.251600X0.150000X-0.587500X0.150000X0.587500X-0.150000X0.587500X-0.150000X-0.587500X0*%
%ADD48RoundRect,0.251600X-0.150000X0.587500X-0.150000X-0.587500X0.150000X-0.587500X0.150000X0.587500X0*%
%ADD49RoundRect,0.251600X0.725000X0.150000X-0.725000X0.150000X-0.725000X-0.150000X0.725000X-0.150000X0*%
%ADD50RoundRect,0.320350X0.218750X0.381250X-0.218750X0.381250X-0.218750X-0.381250X0.218750X-0.381250X0*%
%ADD51RoundRect,0.251600X0.825000X0.150000X-0.825000X0.150000X-0.825000X-0.150000X0.825000X-0.150000X0*%
%ADD52RoundRect,0.320350X-0.218750X-0.381250X0.218750X-0.381250X0.218750X0.381250X-0.218750X0.381250X0*%
%ADD53RoundRect,0.351600X-0.412500X-0.925000X0.412500X-0.925000X0.412500X0.925000X-0.412500X0.925000X0*%
%ADD54RoundRect,0.351600X-0.475000X0.250000X-0.475000X-0.250000X0.475000X-0.250000X0.475000X0.250000X0*%
%ADD55RoundRect,0.351600X-0.925000X0.412500X-0.925000X-0.412500X0.925000X-0.412500X0.925000X0.412500X0*%
G04 APERTURE END LIST*
D10*
%TO.C,A1*%
X61499950Y-69400000D03*
D11*
X64039950Y-69400000D03*
X66579950Y-69400000D03*
X69119950Y-69400000D03*
X71659950Y-69400000D03*
X74199950Y-69400000D03*
X76739950Y-69400000D03*
X79279950Y-69400000D03*
X81819950Y-69400000D03*
X84359950Y-69400000D03*
X86899950Y-69400000D03*
X89439950Y-69400000D03*
X91979950Y-69400000D03*
X94519950Y-69400000D03*
X97059950Y-69400000D03*
X99599950Y-69400000D03*
X102139950Y-69400000D03*
X104679950Y-69400000D03*
X107219950Y-69400000D03*
X109759950Y-69400000D03*
X109760000Y-54600000D03*
X107220000Y-54600000D03*
X104680000Y-54600000D03*
X102140000Y-54600000D03*
X99600000Y-54600000D03*
X97060000Y-54600000D03*
X94520000Y-54600000D03*
X91980000Y-54600000D03*
X89440000Y-54600000D03*
X86900000Y-54600000D03*
X84360000Y-54600000D03*
X81820000Y-54600000D03*
X79280000Y-54600000D03*
X76740000Y-54600000D03*
X74200000Y-54600000D03*
X71660000Y-54600000D03*
X69120000Y-54600000D03*
X66580000Y-54600000D03*
X64040000Y-54600000D03*
X61500000Y-54599950D03*
%TD*%
D12*
%TO.C,U1*%
X110668000Y-40584600D03*
D13*
X110668000Y-43124600D03*
X110668000Y-45664600D03*
X110668000Y-48204600D03*
X118288000Y-48204600D03*
X118288000Y-45664600D03*
X118288000Y-43124600D03*
X118288000Y-40584600D03*
%TD*%
D14*
%TO.C,REF\u002A\u002A*%
X117129600Y-66484600D03*
D15*
X119669600Y-66484600D03*
X122209600Y-66484600D03*
%TD*%
D14*
%TO.C,REF\u002A\u002A*%
X117129600Y-60896600D03*
D15*
X119669600Y-60896600D03*
X122209600Y-60896600D03*
%TD*%
D16*
%TO.C,RV1*%
X64755000Y-75915000D03*
D17*
X67295000Y-75915000D03*
X69835000Y-75915000D03*
%TD*%
D12*
%TO.C,Soket*%
X110668000Y-40584600D03*
D13*
X110668000Y-43124600D03*
X110668000Y-45664600D03*
X110668000Y-48204600D03*
X118288000Y-48204600D03*
X118288000Y-45664600D03*
X118288000Y-43124600D03*
X118288000Y-40584600D03*
%TD*%
D18*
%TO.C,SW1*%
X62687400Y-59525035D03*
D19*
X62687400Y-64075035D03*
D20*
X65187400Y-58300035D03*
X65187400Y-65300035D03*
%TD*%
D14*
%TO.C,REF\u002A\u002A*%
X114579600Y-63690600D03*
D15*
X117119600Y-63690600D03*
X119659600Y-63690600D03*
X122199600Y-63690600D03*
%TD*%
D21*
%TO.C,J4*%
X132890000Y-70430000D03*
D22*
X132890000Y-73030000D03*
X132890000Y-68380000D03*
X132890000Y-75080000D03*
X130400000Y-68380000D03*
X130400000Y-75080000D03*
D23*
X136700000Y-71730000D03*
X135890000Y-78490000D03*
X135890000Y-64970000D03*
%TD*%
D24*
%TO.C,J3*%
X131030000Y-41420000D03*
X131030000Y-38650000D03*
X131030000Y-35880000D03*
X131030000Y-33110000D03*
X131030000Y-30340000D03*
X133870000Y-40035000D03*
X133870000Y-37265000D03*
X133870000Y-34495000D03*
X133870000Y-31725000D03*
D25*
X132450000Y-48375000D03*
X132450000Y-23385000D03*
%TD*%
D26*
%TO.C,J6*%
X69000000Y-23505000D03*
X69000000Y-48495000D03*
D27*
X71540000Y-40315000D03*
D28*
X71540000Y-38025000D03*
X71540000Y-35735000D03*
X71540000Y-33445000D03*
X71540000Y-31155000D03*
X69000000Y-41455000D03*
X69000000Y-39165000D03*
X69000000Y-36875000D03*
X69000000Y-34585000D03*
X69000000Y-32295000D03*
X66460000Y-40315000D03*
X66460000Y-38025000D03*
X66460000Y-35735000D03*
X66460000Y-33445000D03*
X66460000Y-31155000D03*
%TD*%
D29*
%TO.C,D5*%
X127178000Y-54831000D03*
D30*
X127178000Y-52291000D03*
%TD*%
D31*
%TO.C,J1*%
X130910000Y-62910000D03*
X130910000Y-60410000D03*
D32*
X135910000Y-57910000D03*
D31*
X130910000Y-52910000D03*
X130910000Y-55410000D03*
%TD*%
D33*
%TO.C,D4*%
X127300000Y-60655000D03*
D30*
X127300000Y-63195000D03*
%TD*%
D34*
%TO.C,CMOS CR12220*%
X125725000Y-28475000D03*
X125725000Y-24875000D03*
%TD*%
D35*
%TO.C,C9*%
X124282400Y-58014500D03*
X124282400Y-54939500D03*
%TD*%
D36*
%TO.C,R33*%
X73090000Y-26262500D03*
X73090000Y-28087500D03*
%TD*%
%TO.C,R15*%
X115670000Y-46917500D03*
X115670000Y-48742500D03*
%TD*%
D37*
%TO.C,R31*%
X88755000Y-29787500D03*
X88755000Y-27962500D03*
%TD*%
D35*
%TO.C,C8*%
X120904200Y-58014500D03*
X120904200Y-54939500D03*
%TD*%
D37*
%TO.C,R6*%
X120960000Y-41492500D03*
X120960000Y-39667500D03*
%TD*%
D38*
%TO.C,J5*%
X98250000Y-27650000D03*
D39*
X98250000Y-37250000D03*
D40*
X101300000Y-27250000D03*
X109300000Y-27250000D03*
D41*
X113100000Y-37250000D03*
D38*
X114250000Y-27650000D03*
D42*
X108500000Y-37750000D03*
X107350000Y-37750000D03*
X106250000Y-37750000D03*
X105150000Y-37750000D03*
X104050000Y-37750000D03*
X102950000Y-37750000D03*
X101850000Y-37750000D03*
X100750000Y-37750000D03*
X99650000Y-37750000D03*
%TD*%
D43*
%TO.C,C15*%
X75820000Y-36950000D03*
X77720000Y-36950000D03*
%TD*%
D36*
%TO.C,R35*%
X69010000Y-26262500D03*
X69010000Y-28087500D03*
%TD*%
D44*
%TO.C,C6*%
X130460000Y-72680000D03*
X130460000Y-70780000D03*
%TD*%
D45*
%TO.C,R17*%
X104382500Y-49706600D03*
X102557500Y-49706600D03*
%TD*%
D35*
%TO.C,C16*%
X118260000Y-35417500D03*
X118260000Y-32342500D03*
%TD*%
D46*
%TO.C,R36*%
X73262500Y-75275000D03*
X75087500Y-75275000D03*
%TD*%
D47*
%TO.C,D1*%
X84660000Y-44237500D03*
X82760000Y-44237500D03*
X83710000Y-42362500D03*
%TD*%
D37*
%TO.C,R27*%
X82635000Y-29787500D03*
X82635000Y-27962500D03*
%TD*%
D46*
%TO.C,R22*%
X106697500Y-45686800D03*
X108522500Y-45686800D03*
%TD*%
D48*
%TO.C,D3*%
X79680000Y-32932500D03*
X81580000Y-32932500D03*
X80630000Y-34807500D03*
%TD*%
D36*
%TO.C,R24*%
X114150000Y-69287500D03*
X114150000Y-71112500D03*
%TD*%
%TO.C,R26*%
X83750000Y-37327500D03*
X83750000Y-39152500D03*
%TD*%
D35*
%TO.C,C7*%
X117526000Y-58014500D03*
X117526000Y-54939500D03*
%TD*%
D49*
%TO.C,U3*%
X93005000Y-41115000D03*
X93005000Y-42385000D03*
X93005000Y-43655000D03*
X93005000Y-44925000D03*
X93005000Y-46195000D03*
X93005000Y-47465000D03*
X93005000Y-48735000D03*
X93005000Y-50005000D03*
X87855000Y-50005000D03*
X87855000Y-48735000D03*
X87855000Y-47465000D03*
X87855000Y-46195000D03*
X87855000Y-44925000D03*
X87855000Y-43655000D03*
X87855000Y-42385000D03*
X87855000Y-41115000D03*
%TD*%
D46*
%TO.C,R37*%
X128687500Y-65250000D03*
X130512500Y-65250000D03*
%TD*%
D37*
%TO.C,R14*%
X120960000Y-45172500D03*
X120960000Y-43347500D03*
%TD*%
D50*
%TO.C,L1*%
X120392500Y-37700000D03*
X118267500Y-37700000D03*
%TD*%
D43*
%TO.C,C18*%
X94350000Y-27702500D03*
X96250000Y-27702500D03*
%TD*%
D37*
%TO.C,R29*%
X75105397Y-28087500D03*
X75105397Y-26262500D03*
%TD*%
D36*
%TO.C,R5*%
X124465000Y-30962500D03*
X124465000Y-32787500D03*
%TD*%
%TO.C,R16*%
X120960000Y-47000000D03*
X120960000Y-48825000D03*
%TD*%
D37*
%TO.C,R28*%
X84675000Y-29787500D03*
X84675000Y-27962500D03*
%TD*%
D45*
%TO.C,R2*%
X128292500Y-68750000D03*
X126467500Y-68750000D03*
%TD*%
D36*
%TO.C,R23*%
X116101800Y-69287500D03*
X116101800Y-71112500D03*
%TD*%
D45*
%TO.C,R19*%
X104382500Y-45693400D03*
X102557500Y-45693400D03*
%TD*%
D48*
%TO.C,D2*%
X83100000Y-32932500D03*
X85000000Y-32932500D03*
X84050000Y-34807500D03*
%TD*%
D46*
%TO.C,R1*%
X124947500Y-48900000D03*
X126772500Y-48900000D03*
%TD*%
D35*
%TO.C,C10*%
X114147800Y-58014500D03*
X114147800Y-54939500D03*
%TD*%
D51*
%TO.C,U2*%
X79115000Y-42420000D03*
X79115000Y-43690000D03*
X79115000Y-44960000D03*
X79115000Y-46230000D03*
X79115000Y-47500000D03*
X79115000Y-48770000D03*
X79115000Y-50040000D03*
X74165000Y-50040000D03*
X74165000Y-48770000D03*
X74165000Y-47500000D03*
X74165000Y-46230000D03*
X74165000Y-44960000D03*
X74165000Y-43690000D03*
X74165000Y-42420000D03*
%TD*%
D44*
%TO.C,C13*%
X90570000Y-38800000D03*
X90570000Y-36900000D03*
%TD*%
D46*
%TO.C,R20*%
X106697500Y-49700000D03*
X108522500Y-49700000D03*
%TD*%
D35*
%TO.C,C11*%
X87860000Y-39270000D03*
X87860000Y-36195000D03*
%TD*%
D37*
%TO.C,R32*%
X86715000Y-29787500D03*
X86715000Y-27962500D03*
%TD*%
%TO.C,R38*%
X126475000Y-32787500D03*
X126475000Y-30962500D03*
%TD*%
D46*
%TO.C,R21*%
X106707500Y-47700000D03*
X108532500Y-47700000D03*
%TD*%
D52*
%TO.C,L2*%
X94237500Y-29812500D03*
X96362500Y-29812500D03*
%TD*%
D36*
%TO.C,R25*%
X112194200Y-69287500D03*
X112194200Y-71112500D03*
%TD*%
D37*
%TO.C,R13*%
X112750000Y-42402500D03*
X112750000Y-40577500D03*
%TD*%
D53*
%TO.C,C2*%
X124599100Y-42202200D03*
X127674100Y-42202200D03*
%TD*%
D36*
%TO.C,R34*%
X71050000Y-26262500D03*
X71050000Y-28087500D03*
%TD*%
D53*
%TO.C,C1*%
X124573700Y-45707400D03*
X127648700Y-45707400D03*
%TD*%
D44*
%TO.C,C12*%
X121820000Y-34230000D03*
X121820000Y-32330000D03*
%TD*%
D54*
%TO.C,C5*%
X113200000Y-46910000D03*
X113200000Y-48810000D03*
%TD*%
D45*
%TO.C,R18*%
X104382500Y-47700000D03*
X102557500Y-47700000D03*
%TD*%
D53*
%TO.C,C14*%
X75242500Y-39770000D03*
X78317500Y-39770000D03*
%TD*%
D37*
%TO.C,R30*%
X96200000Y-39542500D03*
X96200000Y-37717500D03*
%TD*%
D55*
%TO.C,C17*%
X95300000Y-31725000D03*
X95300000Y-34800000D03*
%TD*%
M02*
