%TF.GenerationSoftware,KiCad,Pcbnew,7.0.7*%
%TF.CreationDate,2024-07-14T10:34:44+05:00*%
%TF.ProjectId,ZXMagic F411,5a584d61-6769-4632-9046-3431312e6b69,rev?*%
%TF.SameCoordinates,Original*%
%TF.FileFunction,Soldermask,Top*%
%TF.FilePolarity,Negative*%
%FSLAX46Y46*%
G04 Gerber Fmt 4.6, Leading zero omitted, Abs format (unit mm)*
G04 Created by KiCad (PCBNEW 7.0.7) date 2024-07-14 10:34:44*
%MOMM*%
%LPD*%
G01*
G04 APERTURE LIST*
G04 Aperture macros list*
%AMRoundRect*
0 Rectangle with rounded corners*
0 $1 Rounding radius*
0 $2 $3 $4 $5 $6 $7 $8 $9 X,Y pos of 4 corners*
0 Add a 4 corners polygon primitive as box body*
4,1,4,$2,$3,$4,$5,$6,$7,$8,$9,$2,$3,0*
0 Add four circle primitives for the rounded corners*
1,1,$1+$1,$2,$3*
1,1,$1+$1,$4,$5*
1,1,$1+$1,$6,$7*
1,1,$1+$1,$8,$9*
0 Add four rect primitives between the rounded corners*
20,1,$1+$1,$2,$3,$4,$5,0*
20,1,$1+$1,$4,$5,$6,$7,0*
20,1,$1+$1,$6,$7,$8,$9,0*
20,1,$1+$1,$8,$9,$2,$3,0*%
G04 Aperture macros list end*
%ADD10RoundRect,0.101600X-0.850000X-0.850000X0.850000X-0.850000X0.850000X0.850000X-0.850000X0.850000X0*%
%ADD11C,1.903200*%
%ADD12RoundRect,0.101600X-0.800000X-0.800000X0.800000X-0.800000X0.800000X0.800000X-0.800000X0.800000X0*%
%ADD13O,1.803200X1.803200*%
%ADD14RoundRect,0.101600X0.850000X-0.850000X0.850000X0.850000X-0.850000X0.850000X-0.850000X-0.850000X0*%
%ADD15O,1.903200X1.903200*%
%ADD16RoundRect,0.102000X-0.850000X-0.850000X0.850000X-0.850000X0.850000X0.850000X-0.850000X0.850000X0*%
%ADD17C,1.904000*%
%ADD18RoundRect,0.102000X-0.754000X0.754000X-0.754000X-0.754000X0.754000X-0.754000X0.754000X0.754000X0*%
%ADD19C,1.712000*%
%ADD20C,2.154000*%
%ADD21RoundRect,0.102000X0.699000X-0.699000X0.699000X0.699000X-0.699000X0.699000X-0.699000X-0.699000X0*%
%ADD22C,1.602000*%
%ADD23C,3.510000*%
%ADD24C,1.839000*%
%ADD25C,4.420000*%
%ADD26C,3.383200*%
%ADD27RoundRect,0.102000X-0.892500X0.892500X-0.892500X-0.892500X0.892500X-0.892500X0.892500X0.892500X0*%
%ADD28C,1.989000*%
%ADD29RoundRect,0.101600X0.900000X-0.900000X0.900000X0.900000X-0.900000X0.900000X-0.900000X-0.900000X0*%
%ADD30C,2.003200*%
%ADD31O,2.403200X1.403200*%
%ADD32O,1.403200X2.403200*%
%ADD33RoundRect,0.101600X-0.900000X0.900000X-0.900000X-0.900000X0.900000X-0.900000X0.900000X0.900000X0*%
%ADD34C,1.603200*%
%ADD35C,1.003200*%
G04 APERTURE END LIST*
D10*
%TO.C,A1*%
X61499950Y-69400000D03*
D11*
X64039950Y-69400000D03*
X66579950Y-69400000D03*
X69119950Y-69400000D03*
X71659950Y-69400000D03*
X74199950Y-69400000D03*
X76739950Y-69400000D03*
X79279950Y-69400000D03*
X81819950Y-69400000D03*
X84359950Y-69400000D03*
X86899950Y-69400000D03*
X89439950Y-69400000D03*
X91979950Y-69400000D03*
X94519950Y-69400000D03*
X97059950Y-69400000D03*
X99599950Y-69400000D03*
X102139950Y-69400000D03*
X104679950Y-69400000D03*
X107219950Y-69400000D03*
X109759950Y-69400000D03*
X109760000Y-54600000D03*
X107220000Y-54600000D03*
X104680000Y-54600000D03*
X102140000Y-54600000D03*
X99600000Y-54600000D03*
X97060000Y-54600000D03*
X94520000Y-54600000D03*
X91980000Y-54600000D03*
X89440000Y-54600000D03*
X86900000Y-54600000D03*
X84360000Y-54600000D03*
X81820000Y-54600000D03*
X79280000Y-54600000D03*
X76740000Y-54600000D03*
X74200000Y-54600000D03*
X71660000Y-54600000D03*
X69120000Y-54600000D03*
X66580000Y-54600000D03*
X64040000Y-54600000D03*
X61500000Y-54599950D03*
%TD*%
D12*
%TO.C,U1*%
X110668000Y-40584600D03*
D13*
X110668000Y-43124600D03*
X110668000Y-45664600D03*
X110668000Y-48204600D03*
X118288000Y-48204600D03*
X118288000Y-45664600D03*
X118288000Y-43124600D03*
X118288000Y-40584600D03*
%TD*%
D14*
%TO.C,REF\u002A\u002A*%
X117129600Y-66484600D03*
D15*
X119669600Y-66484600D03*
X122209600Y-66484600D03*
%TD*%
D14*
%TO.C,REF\u002A\u002A*%
X117129600Y-60896600D03*
D15*
X119669600Y-60896600D03*
X122209600Y-60896600D03*
%TD*%
D16*
%TO.C,RV1*%
X64755000Y-75915000D03*
D17*
X67295000Y-75915000D03*
X69835000Y-75915000D03*
%TD*%
D12*
%TO.C,Soket*%
X110668000Y-40584600D03*
D13*
X110668000Y-43124600D03*
X110668000Y-45664600D03*
X110668000Y-48204600D03*
X118288000Y-48204600D03*
X118288000Y-45664600D03*
X118288000Y-43124600D03*
X118288000Y-40584600D03*
%TD*%
D18*
%TO.C,SW1*%
X62687400Y-59525035D03*
D19*
X62687400Y-64075035D03*
D20*
X65187400Y-58300035D03*
X65187400Y-65300035D03*
%TD*%
D14*
%TO.C,REF\u002A\u002A*%
X114579600Y-63690600D03*
D15*
X117119600Y-63690600D03*
X119659600Y-63690600D03*
X122199600Y-63690600D03*
%TD*%
D21*
%TO.C,J4*%
X132890000Y-70430000D03*
D22*
X132890000Y-73030000D03*
X132890000Y-68380000D03*
X132890000Y-75080000D03*
X130400000Y-68380000D03*
X130400000Y-75080000D03*
D23*
X136700000Y-71730000D03*
X135890000Y-78490000D03*
X135890000Y-64970000D03*
%TD*%
D24*
%TO.C,J3*%
X131030000Y-41420000D03*
X131030000Y-38650000D03*
X131030000Y-35880000D03*
X131030000Y-33110000D03*
X131030000Y-30340000D03*
X133870000Y-40035000D03*
X133870000Y-37265000D03*
X133870000Y-34495000D03*
X133870000Y-31725000D03*
D25*
X132450000Y-48375000D03*
X132450000Y-23385000D03*
%TD*%
D26*
%TO.C,J6*%
X69000000Y-23505000D03*
X69000000Y-48495000D03*
D27*
X71540000Y-40315000D03*
D28*
X71540000Y-38025000D03*
X71540000Y-35735000D03*
X71540000Y-33445000D03*
X71540000Y-31155000D03*
X69000000Y-41455000D03*
X69000000Y-39165000D03*
X69000000Y-36875000D03*
X69000000Y-34585000D03*
X69000000Y-32295000D03*
X66460000Y-40315000D03*
X66460000Y-38025000D03*
X66460000Y-35735000D03*
X66460000Y-33445000D03*
X66460000Y-31155000D03*
%TD*%
D29*
%TO.C,D5*%
X127178000Y-54831000D03*
D30*
X127178000Y-52291000D03*
%TD*%
D31*
%TO.C,J1*%
X130910000Y-62910000D03*
X130910000Y-60410000D03*
D32*
X135910000Y-57910000D03*
D31*
X130910000Y-52910000D03*
X130910000Y-55410000D03*
%TD*%
D33*
%TO.C,D4*%
X127300000Y-60655000D03*
D30*
X127300000Y-63195000D03*
%TD*%
D34*
%TO.C,CMOS CR12220*%
X125725000Y-28475000D03*
X125725000Y-24875000D03*
%TD*%
D35*
%TO.C,J5*%
X101300000Y-27250000D03*
X109300000Y-27250000D03*
%TD*%
M02*
