%TF.GenerationSoftware,KiCad,Pcbnew,7.0.7*%
%TF.CreationDate,2024-07-14T10:34:44+05:00*%
%TF.ProjectId,ZXMagic F411,5a584d61-6769-4632-9046-3431312e6b69,rev?*%
%TF.SameCoordinates,Original*%
%TF.FileFunction,Paste,Bot*%
%TF.FilePolarity,Positive*%
%FSLAX46Y46*%
G04 Gerber Fmt 4.6, Leading zero omitted, Abs format (unit mm)*
G04 Created by KiCad (PCBNEW 7.0.7) date 2024-07-14 10:34:44*
%MOMM*%
%LPD*%
G01*
G04 APERTURE LIST*
G04 Aperture macros list*
%AMRoundRect*
0 Rectangle with rounded corners*
0 $1 Rounding radius*
0 $2 $3 $4 $5 $6 $7 $8 $9 X,Y pos of 4 corners*
0 Add a 4 corners polygon primitive as box body*
4,1,4,$2,$3,$4,$5,$6,$7,$8,$9,$2,$3,0*
0 Add four circle primitives for the rounded corners*
1,1,$1+$1,$2,$3*
1,1,$1+$1,$4,$5*
1,1,$1+$1,$6,$7*
1,1,$1+$1,$8,$9*
0 Add four rect primitives between the rounded corners*
20,1,$1+$1,$2,$3,$4,$5,0*
20,1,$1+$1,$4,$5,$6,$7,0*
20,1,$1+$1,$6,$7,$8,$9,0*
20,1,$1+$1,$8,$9,$2,$3,0*%
G04 Aperture macros list end*
%ADD10RoundRect,0.250000X0.925000X-0.412500X0.925000X0.412500X-0.925000X0.412500X-0.925000X-0.412500X0*%
%ADD11RoundRect,0.250000X-0.450000X0.262500X-0.450000X-0.262500X0.450000X-0.262500X0.450000X0.262500X0*%
%ADD12RoundRect,0.250000X0.450000X-0.262500X0.450000X0.262500X-0.450000X0.262500X-0.450000X-0.262500X0*%
%ADD13R,1.600000X2.200000*%
%ADD14R,1.400000X1.400000*%
%ADD15R,1.600000X1.400000*%
%ADD16R,0.700000X1.600000*%
%ADD17RoundRect,0.250000X-0.250000X-0.475000X0.250000X-0.475000X0.250000X0.475000X-0.250000X0.475000X0*%
%ADD18RoundRect,0.250000X0.475000X-0.250000X0.475000X0.250000X-0.475000X0.250000X-0.475000X-0.250000X0*%
%ADD19RoundRect,0.250000X0.262500X0.450000X-0.262500X0.450000X-0.262500X-0.450000X0.262500X-0.450000X0*%
%ADD20RoundRect,0.250000X-0.262500X-0.450000X0.262500X-0.450000X0.262500X0.450000X-0.262500X0.450000X0*%
%ADD21RoundRect,0.150000X0.150000X-0.587500X0.150000X0.587500X-0.150000X0.587500X-0.150000X-0.587500X0*%
%ADD22RoundRect,0.150000X-0.150000X0.587500X-0.150000X-0.587500X0.150000X-0.587500X0.150000X0.587500X0*%
%ADD23RoundRect,0.150000X0.725000X0.150000X-0.725000X0.150000X-0.725000X-0.150000X0.725000X-0.150000X0*%
%ADD24RoundRect,0.218750X0.218750X0.381250X-0.218750X0.381250X-0.218750X-0.381250X0.218750X-0.381250X0*%
%ADD25RoundRect,0.150000X0.825000X0.150000X-0.825000X0.150000X-0.825000X-0.150000X0.825000X-0.150000X0*%
%ADD26RoundRect,0.218750X-0.218750X-0.381250X0.218750X-0.381250X0.218750X0.381250X-0.218750X0.381250X0*%
%ADD27RoundRect,0.250000X-0.412500X-0.925000X0.412500X-0.925000X0.412500X0.925000X-0.412500X0.925000X0*%
%ADD28RoundRect,0.250000X-0.475000X0.250000X-0.475000X-0.250000X0.475000X-0.250000X0.475000X0.250000X0*%
%ADD29RoundRect,0.250000X-0.925000X0.412500X-0.925000X-0.412500X0.925000X-0.412500X0.925000X0.412500X0*%
G04 APERTURE END LIST*
D10*
%TO.C,C9*%
X124282400Y-58014500D03*
X124282400Y-54939500D03*
%TD*%
D11*
%TO.C,R33*%
X73090000Y-26262500D03*
X73090000Y-28087500D03*
%TD*%
%TO.C,R15*%
X115670000Y-46917500D03*
X115670000Y-48742500D03*
%TD*%
D12*
%TO.C,R31*%
X88755000Y-29787500D03*
X88755000Y-27962500D03*
%TD*%
D10*
%TO.C,C8*%
X120904200Y-58014500D03*
X120904200Y-54939500D03*
%TD*%
D12*
%TO.C,R6*%
X120960000Y-41492500D03*
X120960000Y-39667500D03*
%TD*%
D13*
%TO.C,J5*%
X98250000Y-27650000D03*
D14*
X98250000Y-37250000D03*
D15*
X113100000Y-37250000D03*
D13*
X114250000Y-27650000D03*
D16*
X108500000Y-37750000D03*
X107350000Y-37750000D03*
X106250000Y-37750000D03*
X105150000Y-37750000D03*
X104050000Y-37750000D03*
X102950000Y-37750000D03*
X101850000Y-37750000D03*
X100750000Y-37750000D03*
X99650000Y-37750000D03*
%TD*%
D17*
%TO.C,C15*%
X75820000Y-36950000D03*
X77720000Y-36950000D03*
%TD*%
D11*
%TO.C,R35*%
X69010000Y-26262500D03*
X69010000Y-28087500D03*
%TD*%
D18*
%TO.C,C6*%
X130460000Y-72680000D03*
X130460000Y-70780000D03*
%TD*%
D19*
%TO.C,R17*%
X104382500Y-49706600D03*
X102557500Y-49706600D03*
%TD*%
D10*
%TO.C,C16*%
X118260000Y-35417500D03*
X118260000Y-32342500D03*
%TD*%
D20*
%TO.C,R36*%
X73262500Y-75275000D03*
X75087500Y-75275000D03*
%TD*%
D21*
%TO.C,D1*%
X84660000Y-44237500D03*
X82760000Y-44237500D03*
X83710000Y-42362500D03*
%TD*%
D12*
%TO.C,R27*%
X82635000Y-29787500D03*
X82635000Y-27962500D03*
%TD*%
D20*
%TO.C,R22*%
X106697500Y-45686800D03*
X108522500Y-45686800D03*
%TD*%
D22*
%TO.C,D3*%
X79680000Y-32932500D03*
X81580000Y-32932500D03*
X80630000Y-34807500D03*
%TD*%
D11*
%TO.C,R24*%
X114150000Y-69287500D03*
X114150000Y-71112500D03*
%TD*%
%TO.C,R26*%
X83750000Y-37327500D03*
X83750000Y-39152500D03*
%TD*%
D10*
%TO.C,C7*%
X117526000Y-58014500D03*
X117526000Y-54939500D03*
%TD*%
D23*
%TO.C,U3*%
X93005000Y-41115000D03*
X93005000Y-42385000D03*
X93005000Y-43655000D03*
X93005000Y-44925000D03*
X93005000Y-46195000D03*
X93005000Y-47465000D03*
X93005000Y-48735000D03*
X93005000Y-50005000D03*
X87855000Y-50005000D03*
X87855000Y-48735000D03*
X87855000Y-47465000D03*
X87855000Y-46195000D03*
X87855000Y-44925000D03*
X87855000Y-43655000D03*
X87855000Y-42385000D03*
X87855000Y-41115000D03*
%TD*%
D20*
%TO.C,R37*%
X128687500Y-65250000D03*
X130512500Y-65250000D03*
%TD*%
D12*
%TO.C,R14*%
X120960000Y-45172500D03*
X120960000Y-43347500D03*
%TD*%
D24*
%TO.C,L1*%
X120392500Y-37700000D03*
X118267500Y-37700000D03*
%TD*%
D17*
%TO.C,C18*%
X94350000Y-27702500D03*
X96250000Y-27702500D03*
%TD*%
D12*
%TO.C,R29*%
X75105397Y-28087500D03*
X75105397Y-26262500D03*
%TD*%
D11*
%TO.C,R5*%
X124465000Y-30962500D03*
X124465000Y-32787500D03*
%TD*%
%TO.C,R16*%
X120960000Y-47000000D03*
X120960000Y-48825000D03*
%TD*%
D12*
%TO.C,R28*%
X84675000Y-29787500D03*
X84675000Y-27962500D03*
%TD*%
D19*
%TO.C,R2*%
X128292500Y-68750000D03*
X126467500Y-68750000D03*
%TD*%
D11*
%TO.C,R23*%
X116101800Y-69287500D03*
X116101800Y-71112500D03*
%TD*%
D19*
%TO.C,R19*%
X104382500Y-45693400D03*
X102557500Y-45693400D03*
%TD*%
D22*
%TO.C,D2*%
X83100000Y-32932500D03*
X85000000Y-32932500D03*
X84050000Y-34807500D03*
%TD*%
D20*
%TO.C,R1*%
X124947500Y-48900000D03*
X126772500Y-48900000D03*
%TD*%
D10*
%TO.C,C10*%
X114147800Y-58014500D03*
X114147800Y-54939500D03*
%TD*%
D25*
%TO.C,U2*%
X79115000Y-42420000D03*
X79115000Y-43690000D03*
X79115000Y-44960000D03*
X79115000Y-46230000D03*
X79115000Y-47500000D03*
X79115000Y-48770000D03*
X79115000Y-50040000D03*
X74165000Y-50040000D03*
X74165000Y-48770000D03*
X74165000Y-47500000D03*
X74165000Y-46230000D03*
X74165000Y-44960000D03*
X74165000Y-43690000D03*
X74165000Y-42420000D03*
%TD*%
D18*
%TO.C,C13*%
X90570000Y-38800000D03*
X90570000Y-36900000D03*
%TD*%
D20*
%TO.C,R20*%
X106697500Y-49700000D03*
X108522500Y-49700000D03*
%TD*%
D10*
%TO.C,C11*%
X87860000Y-39270000D03*
X87860000Y-36195000D03*
%TD*%
D12*
%TO.C,R32*%
X86715000Y-29787500D03*
X86715000Y-27962500D03*
%TD*%
%TO.C,R38*%
X126475000Y-32787500D03*
X126475000Y-30962500D03*
%TD*%
D20*
%TO.C,R21*%
X106707500Y-47700000D03*
X108532500Y-47700000D03*
%TD*%
D26*
%TO.C,L2*%
X94237500Y-29812500D03*
X96362500Y-29812500D03*
%TD*%
D11*
%TO.C,R25*%
X112194200Y-69287500D03*
X112194200Y-71112500D03*
%TD*%
D12*
%TO.C,R13*%
X112750000Y-42402500D03*
X112750000Y-40577500D03*
%TD*%
D27*
%TO.C,C2*%
X124599100Y-42202200D03*
X127674100Y-42202200D03*
%TD*%
D11*
%TO.C,R34*%
X71050000Y-26262500D03*
X71050000Y-28087500D03*
%TD*%
D27*
%TO.C,C1*%
X124573700Y-45707400D03*
X127648700Y-45707400D03*
%TD*%
D18*
%TO.C,C12*%
X121820000Y-34230000D03*
X121820000Y-32330000D03*
%TD*%
D28*
%TO.C,C5*%
X113200000Y-46910000D03*
X113200000Y-48810000D03*
%TD*%
D19*
%TO.C,R18*%
X104382500Y-47700000D03*
X102557500Y-47700000D03*
%TD*%
D27*
%TO.C,C14*%
X75242500Y-39770000D03*
X78317500Y-39770000D03*
%TD*%
D12*
%TO.C,R30*%
X96200000Y-39542500D03*
X96200000Y-37717500D03*
%TD*%
D29*
%TO.C,C17*%
X95300000Y-31725000D03*
X95300000Y-34800000D03*
%TD*%
M02*
