%TF.GenerationSoftware,KiCad,Pcbnew,7.0.7*%
%TF.CreationDate,2024-07-14T10:34:44+05:00*%
%TF.ProjectId,ZXMagic F411,5a584d61-6769-4632-9046-3431312e6b69,rev?*%
%TF.SameCoordinates,Original*%
%TF.FileFunction,Legend,Bot*%
%TF.FilePolarity,Positive*%
%FSLAX46Y46*%
G04 Gerber Fmt 4.6, Leading zero omitted, Abs format (unit mm)*
G04 Created by KiCad (PCBNEW 7.0.7) date 2024-07-14 10:34:44*
%MOMM*%
%LPD*%
G01*
G04 APERTURE LIST*
%ADD10C,0.100000*%
%ADD11C,0.150000*%
%ADD12C,0.120000*%
G04 APERTURE END LIST*
D10*
X129500000Y-36000000D02*
G75*
G03*
X129500000Y-36000000I-2500000J0D01*
G01*
X75500000Y-64000000D02*
G75*
G03*
X75500000Y-64000000I-2500000J0D01*
G01*
D11*
X124499866Y-53712380D02*
X124547485Y-53760000D01*
X124547485Y-53760000D02*
X124690342Y-53807619D01*
X124690342Y-53807619D02*
X124785580Y-53807619D01*
X124785580Y-53807619D02*
X124928437Y-53760000D01*
X124928437Y-53760000D02*
X125023675Y-53664761D01*
X125023675Y-53664761D02*
X125071294Y-53569523D01*
X125071294Y-53569523D02*
X125118913Y-53379047D01*
X125118913Y-53379047D02*
X125118913Y-53236190D01*
X125118913Y-53236190D02*
X125071294Y-53045714D01*
X125071294Y-53045714D02*
X125023675Y-52950476D01*
X125023675Y-52950476D02*
X124928437Y-52855238D01*
X124928437Y-52855238D02*
X124785580Y-52807619D01*
X124785580Y-52807619D02*
X124690342Y-52807619D01*
X124690342Y-52807619D02*
X124547485Y-52855238D01*
X124547485Y-52855238D02*
X124499866Y-52902857D01*
X124023675Y-53807619D02*
X123833199Y-53807619D01*
X123833199Y-53807619D02*
X123737961Y-53760000D01*
X123737961Y-53760000D02*
X123690342Y-53712380D01*
X123690342Y-53712380D02*
X123595104Y-53569523D01*
X123595104Y-53569523D02*
X123547485Y-53379047D01*
X123547485Y-53379047D02*
X123547485Y-52998095D01*
X123547485Y-52998095D02*
X123595104Y-52902857D01*
X123595104Y-52902857D02*
X123642723Y-52855238D01*
X123642723Y-52855238D02*
X123737961Y-52807619D01*
X123737961Y-52807619D02*
X123928437Y-52807619D01*
X123928437Y-52807619D02*
X124023675Y-52855238D01*
X124023675Y-52855238D02*
X124071294Y-52902857D01*
X124071294Y-52902857D02*
X124118913Y-52998095D01*
X124118913Y-52998095D02*
X124118913Y-53236190D01*
X124118913Y-53236190D02*
X124071294Y-53331428D01*
X124071294Y-53331428D02*
X124023675Y-53379047D01*
X124023675Y-53379047D02*
X123928437Y-53426666D01*
X123928437Y-53426666D02*
X123737961Y-53426666D01*
X123737961Y-53426666D02*
X123642723Y-53379047D01*
X123642723Y-53379047D02*
X123595104Y-53331428D01*
X123595104Y-53331428D02*
X123547485Y-53236190D01*
X73822857Y-30079819D02*
X74156190Y-29603628D01*
X74394285Y-30079819D02*
X74394285Y-29079819D01*
X74394285Y-29079819D02*
X74013333Y-29079819D01*
X74013333Y-29079819D02*
X73918095Y-29127438D01*
X73918095Y-29127438D02*
X73870476Y-29175057D01*
X73870476Y-29175057D02*
X73822857Y-29270295D01*
X73822857Y-29270295D02*
X73822857Y-29413152D01*
X73822857Y-29413152D02*
X73870476Y-29508390D01*
X73870476Y-29508390D02*
X73918095Y-29556009D01*
X73918095Y-29556009D02*
X74013333Y-29603628D01*
X74013333Y-29603628D02*
X74394285Y-29603628D01*
X73489523Y-29079819D02*
X72870476Y-29079819D01*
X72870476Y-29079819D02*
X73203809Y-29460771D01*
X73203809Y-29460771D02*
X73060952Y-29460771D01*
X73060952Y-29460771D02*
X72965714Y-29508390D01*
X72965714Y-29508390D02*
X72918095Y-29556009D01*
X72918095Y-29556009D02*
X72870476Y-29651247D01*
X72870476Y-29651247D02*
X72870476Y-29889342D01*
X72870476Y-29889342D02*
X72918095Y-29984580D01*
X72918095Y-29984580D02*
X72965714Y-30032200D01*
X72965714Y-30032200D02*
X73060952Y-30079819D01*
X73060952Y-30079819D02*
X73346666Y-30079819D01*
X73346666Y-30079819D02*
X73441904Y-30032200D01*
X73441904Y-30032200D02*
X73489523Y-29984580D01*
X72537142Y-29079819D02*
X71918095Y-29079819D01*
X71918095Y-29079819D02*
X72251428Y-29460771D01*
X72251428Y-29460771D02*
X72108571Y-29460771D01*
X72108571Y-29460771D02*
X72013333Y-29508390D01*
X72013333Y-29508390D02*
X71965714Y-29556009D01*
X71965714Y-29556009D02*
X71918095Y-29651247D01*
X71918095Y-29651247D02*
X71918095Y-29889342D01*
X71918095Y-29889342D02*
X71965714Y-29984580D01*
X71965714Y-29984580D02*
X72013333Y-30032200D01*
X72013333Y-30032200D02*
X72108571Y-30079819D01*
X72108571Y-30079819D02*
X72394285Y-30079819D01*
X72394285Y-30079819D02*
X72489523Y-30032200D01*
X72489523Y-30032200D02*
X72537142Y-29984580D01*
X116352857Y-45894819D02*
X116686190Y-45418628D01*
X116924285Y-45894819D02*
X116924285Y-44894819D01*
X116924285Y-44894819D02*
X116543333Y-44894819D01*
X116543333Y-44894819D02*
X116448095Y-44942438D01*
X116448095Y-44942438D02*
X116400476Y-44990057D01*
X116400476Y-44990057D02*
X116352857Y-45085295D01*
X116352857Y-45085295D02*
X116352857Y-45228152D01*
X116352857Y-45228152D02*
X116400476Y-45323390D01*
X116400476Y-45323390D02*
X116448095Y-45371009D01*
X116448095Y-45371009D02*
X116543333Y-45418628D01*
X116543333Y-45418628D02*
X116924285Y-45418628D01*
X115400476Y-45894819D02*
X115971904Y-45894819D01*
X115686190Y-45894819D02*
X115686190Y-44894819D01*
X115686190Y-44894819D02*
X115781428Y-45037676D01*
X115781428Y-45037676D02*
X115876666Y-45132914D01*
X115876666Y-45132914D02*
X115971904Y-45180533D01*
X114495714Y-44894819D02*
X114971904Y-44894819D01*
X114971904Y-44894819D02*
X115019523Y-45371009D01*
X115019523Y-45371009D02*
X114971904Y-45323390D01*
X114971904Y-45323390D02*
X114876666Y-45275771D01*
X114876666Y-45275771D02*
X114638571Y-45275771D01*
X114638571Y-45275771D02*
X114543333Y-45323390D01*
X114543333Y-45323390D02*
X114495714Y-45371009D01*
X114495714Y-45371009D02*
X114448095Y-45466247D01*
X114448095Y-45466247D02*
X114448095Y-45704342D01*
X114448095Y-45704342D02*
X114495714Y-45799580D01*
X114495714Y-45799580D02*
X114543333Y-45847200D01*
X114543333Y-45847200D02*
X114638571Y-45894819D01*
X114638571Y-45894819D02*
X114876666Y-45894819D01*
X114876666Y-45894819D02*
X114971904Y-45847200D01*
X114971904Y-45847200D02*
X115019523Y-45799580D01*
X89167857Y-26959819D02*
X89501190Y-26483628D01*
X89739285Y-26959819D02*
X89739285Y-25959819D01*
X89739285Y-25959819D02*
X89358333Y-25959819D01*
X89358333Y-25959819D02*
X89263095Y-26007438D01*
X89263095Y-26007438D02*
X89215476Y-26055057D01*
X89215476Y-26055057D02*
X89167857Y-26150295D01*
X89167857Y-26150295D02*
X89167857Y-26293152D01*
X89167857Y-26293152D02*
X89215476Y-26388390D01*
X89215476Y-26388390D02*
X89263095Y-26436009D01*
X89263095Y-26436009D02*
X89358333Y-26483628D01*
X89358333Y-26483628D02*
X89739285Y-26483628D01*
X88834523Y-25959819D02*
X88215476Y-25959819D01*
X88215476Y-25959819D02*
X88548809Y-26340771D01*
X88548809Y-26340771D02*
X88405952Y-26340771D01*
X88405952Y-26340771D02*
X88310714Y-26388390D01*
X88310714Y-26388390D02*
X88263095Y-26436009D01*
X88263095Y-26436009D02*
X88215476Y-26531247D01*
X88215476Y-26531247D02*
X88215476Y-26769342D01*
X88215476Y-26769342D02*
X88263095Y-26864580D01*
X88263095Y-26864580D02*
X88310714Y-26912200D01*
X88310714Y-26912200D02*
X88405952Y-26959819D01*
X88405952Y-26959819D02*
X88691666Y-26959819D01*
X88691666Y-26959819D02*
X88786904Y-26912200D01*
X88786904Y-26912200D02*
X88834523Y-26864580D01*
X87263095Y-26959819D02*
X87834523Y-26959819D01*
X87548809Y-26959819D02*
X87548809Y-25959819D01*
X87548809Y-25959819D02*
X87644047Y-26102676D01*
X87644047Y-26102676D02*
X87739285Y-26197914D01*
X87739285Y-26197914D02*
X87834523Y-26245533D01*
X120975066Y-53825780D02*
X121022685Y-53873400D01*
X121022685Y-53873400D02*
X121165542Y-53921019D01*
X121165542Y-53921019D02*
X121260780Y-53921019D01*
X121260780Y-53921019D02*
X121403637Y-53873400D01*
X121403637Y-53873400D02*
X121498875Y-53778161D01*
X121498875Y-53778161D02*
X121546494Y-53682923D01*
X121546494Y-53682923D02*
X121594113Y-53492447D01*
X121594113Y-53492447D02*
X121594113Y-53349590D01*
X121594113Y-53349590D02*
X121546494Y-53159114D01*
X121546494Y-53159114D02*
X121498875Y-53063876D01*
X121498875Y-53063876D02*
X121403637Y-52968638D01*
X121403637Y-52968638D02*
X121260780Y-52921019D01*
X121260780Y-52921019D02*
X121165542Y-52921019D01*
X121165542Y-52921019D02*
X121022685Y-52968638D01*
X121022685Y-52968638D02*
X120975066Y-53016257D01*
X120403637Y-53349590D02*
X120498875Y-53301971D01*
X120498875Y-53301971D02*
X120546494Y-53254352D01*
X120546494Y-53254352D02*
X120594113Y-53159114D01*
X120594113Y-53159114D02*
X120594113Y-53111495D01*
X120594113Y-53111495D02*
X120546494Y-53016257D01*
X120546494Y-53016257D02*
X120498875Y-52968638D01*
X120498875Y-52968638D02*
X120403637Y-52921019D01*
X120403637Y-52921019D02*
X120213161Y-52921019D01*
X120213161Y-52921019D02*
X120117923Y-52968638D01*
X120117923Y-52968638D02*
X120070304Y-53016257D01*
X120070304Y-53016257D02*
X120022685Y-53111495D01*
X120022685Y-53111495D02*
X120022685Y-53159114D01*
X120022685Y-53159114D02*
X120070304Y-53254352D01*
X120070304Y-53254352D02*
X120117923Y-53301971D01*
X120117923Y-53301971D02*
X120213161Y-53349590D01*
X120213161Y-53349590D02*
X120403637Y-53349590D01*
X120403637Y-53349590D02*
X120498875Y-53397209D01*
X120498875Y-53397209D02*
X120546494Y-53444828D01*
X120546494Y-53444828D02*
X120594113Y-53540066D01*
X120594113Y-53540066D02*
X120594113Y-53730542D01*
X120594113Y-53730542D02*
X120546494Y-53825780D01*
X120546494Y-53825780D02*
X120498875Y-53873400D01*
X120498875Y-53873400D02*
X120403637Y-53921019D01*
X120403637Y-53921019D02*
X120213161Y-53921019D01*
X120213161Y-53921019D02*
X120117923Y-53873400D01*
X120117923Y-53873400D02*
X120070304Y-53825780D01*
X120070304Y-53825780D02*
X120022685Y-53730542D01*
X120022685Y-53730542D02*
X120022685Y-53540066D01*
X120022685Y-53540066D02*
X120070304Y-53444828D01*
X120070304Y-53444828D02*
X120117923Y-53397209D01*
X120117923Y-53397209D02*
X120213161Y-53349590D01*
X123074819Y-40343333D02*
X122598628Y-40010000D01*
X123074819Y-39771905D02*
X122074819Y-39771905D01*
X122074819Y-39771905D02*
X122074819Y-40152857D01*
X122074819Y-40152857D02*
X122122438Y-40248095D01*
X122122438Y-40248095D02*
X122170057Y-40295714D01*
X122170057Y-40295714D02*
X122265295Y-40343333D01*
X122265295Y-40343333D02*
X122408152Y-40343333D01*
X122408152Y-40343333D02*
X122503390Y-40295714D01*
X122503390Y-40295714D02*
X122551009Y-40248095D01*
X122551009Y-40248095D02*
X122598628Y-40152857D01*
X122598628Y-40152857D02*
X122598628Y-39771905D01*
X122074819Y-41200476D02*
X122074819Y-41010000D01*
X122074819Y-41010000D02*
X122122438Y-40914762D01*
X122122438Y-40914762D02*
X122170057Y-40867143D01*
X122170057Y-40867143D02*
X122312914Y-40771905D01*
X122312914Y-40771905D02*
X122503390Y-40724286D01*
X122503390Y-40724286D02*
X122884342Y-40724286D01*
X122884342Y-40724286D02*
X122979580Y-40771905D01*
X122979580Y-40771905D02*
X123027200Y-40819524D01*
X123027200Y-40819524D02*
X123074819Y-40914762D01*
X123074819Y-40914762D02*
X123074819Y-41105238D01*
X123074819Y-41105238D02*
X123027200Y-41200476D01*
X123027200Y-41200476D02*
X122979580Y-41248095D01*
X122979580Y-41248095D02*
X122884342Y-41295714D01*
X122884342Y-41295714D02*
X122646247Y-41295714D01*
X122646247Y-41295714D02*
X122551009Y-41248095D01*
X122551009Y-41248095D02*
X122503390Y-41200476D01*
X122503390Y-41200476D02*
X122455771Y-41105238D01*
X122455771Y-41105238D02*
X122455771Y-40914762D01*
X122455771Y-40914762D02*
X122503390Y-40819524D01*
X122503390Y-40819524D02*
X122551009Y-40771905D01*
X122551009Y-40771905D02*
X122646247Y-40724286D01*
D10*
X99313333Y-39267419D02*
X99313333Y-39981704D01*
X99313333Y-39981704D02*
X99360952Y-40124561D01*
X99360952Y-40124561D02*
X99456190Y-40219800D01*
X99456190Y-40219800D02*
X99599047Y-40267419D01*
X99599047Y-40267419D02*
X99694285Y-40267419D01*
X98360952Y-39267419D02*
X98837142Y-39267419D01*
X98837142Y-39267419D02*
X98884761Y-39743609D01*
X98884761Y-39743609D02*
X98837142Y-39695990D01*
X98837142Y-39695990D02*
X98741904Y-39648371D01*
X98741904Y-39648371D02*
X98503809Y-39648371D01*
X98503809Y-39648371D02*
X98408571Y-39695990D01*
X98408571Y-39695990D02*
X98360952Y-39743609D01*
X98360952Y-39743609D02*
X98313333Y-39838847D01*
X98313333Y-39838847D02*
X98313333Y-40076942D01*
X98313333Y-40076942D02*
X98360952Y-40172180D01*
X98360952Y-40172180D02*
X98408571Y-40219800D01*
X98408571Y-40219800D02*
X98503809Y-40267419D01*
X98503809Y-40267419D02*
X98741904Y-40267419D01*
X98741904Y-40267419D02*
X98837142Y-40219800D01*
X98837142Y-40219800D02*
X98884761Y-40172180D01*
D11*
X76952857Y-35619580D02*
X77000476Y-35667200D01*
X77000476Y-35667200D02*
X77143333Y-35714819D01*
X77143333Y-35714819D02*
X77238571Y-35714819D01*
X77238571Y-35714819D02*
X77381428Y-35667200D01*
X77381428Y-35667200D02*
X77476666Y-35571961D01*
X77476666Y-35571961D02*
X77524285Y-35476723D01*
X77524285Y-35476723D02*
X77571904Y-35286247D01*
X77571904Y-35286247D02*
X77571904Y-35143390D01*
X77571904Y-35143390D02*
X77524285Y-34952914D01*
X77524285Y-34952914D02*
X77476666Y-34857676D01*
X77476666Y-34857676D02*
X77381428Y-34762438D01*
X77381428Y-34762438D02*
X77238571Y-34714819D01*
X77238571Y-34714819D02*
X77143333Y-34714819D01*
X77143333Y-34714819D02*
X77000476Y-34762438D01*
X77000476Y-34762438D02*
X76952857Y-34810057D01*
X76000476Y-35714819D02*
X76571904Y-35714819D01*
X76286190Y-35714819D02*
X76286190Y-34714819D01*
X76286190Y-34714819D02*
X76381428Y-34857676D01*
X76381428Y-34857676D02*
X76476666Y-34952914D01*
X76476666Y-34952914D02*
X76571904Y-35000533D01*
X75095714Y-34714819D02*
X75571904Y-34714819D01*
X75571904Y-34714819D02*
X75619523Y-35191009D01*
X75619523Y-35191009D02*
X75571904Y-35143390D01*
X75571904Y-35143390D02*
X75476666Y-35095771D01*
X75476666Y-35095771D02*
X75238571Y-35095771D01*
X75238571Y-35095771D02*
X75143333Y-35143390D01*
X75143333Y-35143390D02*
X75095714Y-35191009D01*
X75095714Y-35191009D02*
X75048095Y-35286247D01*
X75048095Y-35286247D02*
X75048095Y-35524342D01*
X75048095Y-35524342D02*
X75095714Y-35619580D01*
X75095714Y-35619580D02*
X75143333Y-35667200D01*
X75143333Y-35667200D02*
X75238571Y-35714819D01*
X75238571Y-35714819D02*
X75476666Y-35714819D01*
X75476666Y-35714819D02*
X75571904Y-35667200D01*
X75571904Y-35667200D02*
X75619523Y-35619580D01*
X69703657Y-30159819D02*
X70036990Y-29683628D01*
X70275085Y-30159819D02*
X70275085Y-29159819D01*
X70275085Y-29159819D02*
X69894133Y-29159819D01*
X69894133Y-29159819D02*
X69798895Y-29207438D01*
X69798895Y-29207438D02*
X69751276Y-29255057D01*
X69751276Y-29255057D02*
X69703657Y-29350295D01*
X69703657Y-29350295D02*
X69703657Y-29493152D01*
X69703657Y-29493152D02*
X69751276Y-29588390D01*
X69751276Y-29588390D02*
X69798895Y-29636009D01*
X69798895Y-29636009D02*
X69894133Y-29683628D01*
X69894133Y-29683628D02*
X70275085Y-29683628D01*
X69370323Y-29159819D02*
X68751276Y-29159819D01*
X68751276Y-29159819D02*
X69084609Y-29540771D01*
X69084609Y-29540771D02*
X68941752Y-29540771D01*
X68941752Y-29540771D02*
X68846514Y-29588390D01*
X68846514Y-29588390D02*
X68798895Y-29636009D01*
X68798895Y-29636009D02*
X68751276Y-29731247D01*
X68751276Y-29731247D02*
X68751276Y-29969342D01*
X68751276Y-29969342D02*
X68798895Y-30064580D01*
X68798895Y-30064580D02*
X68846514Y-30112200D01*
X68846514Y-30112200D02*
X68941752Y-30159819D01*
X68941752Y-30159819D02*
X69227466Y-30159819D01*
X69227466Y-30159819D02*
X69322704Y-30112200D01*
X69322704Y-30112200D02*
X69370323Y-30064580D01*
X67846514Y-29159819D02*
X68322704Y-29159819D01*
X68322704Y-29159819D02*
X68370323Y-29636009D01*
X68370323Y-29636009D02*
X68322704Y-29588390D01*
X68322704Y-29588390D02*
X68227466Y-29540771D01*
X68227466Y-29540771D02*
X67989371Y-29540771D01*
X67989371Y-29540771D02*
X67894133Y-29588390D01*
X67894133Y-29588390D02*
X67846514Y-29636009D01*
X67846514Y-29636009D02*
X67798895Y-29731247D01*
X67798895Y-29731247D02*
X67798895Y-29969342D01*
X67798895Y-29969342D02*
X67846514Y-30064580D01*
X67846514Y-30064580D02*
X67894133Y-30112200D01*
X67894133Y-30112200D02*
X67989371Y-30159819D01*
X67989371Y-30159819D02*
X68227466Y-30159819D01*
X68227466Y-30159819D02*
X68322704Y-30112200D01*
X68322704Y-30112200D02*
X68370323Y-30064580D01*
X128416666Y-73119580D02*
X128464285Y-73167200D01*
X128464285Y-73167200D02*
X128607142Y-73214819D01*
X128607142Y-73214819D02*
X128702380Y-73214819D01*
X128702380Y-73214819D02*
X128845237Y-73167200D01*
X128845237Y-73167200D02*
X128940475Y-73071961D01*
X128940475Y-73071961D02*
X128988094Y-72976723D01*
X128988094Y-72976723D02*
X129035713Y-72786247D01*
X129035713Y-72786247D02*
X129035713Y-72643390D01*
X129035713Y-72643390D02*
X128988094Y-72452914D01*
X128988094Y-72452914D02*
X128940475Y-72357676D01*
X128940475Y-72357676D02*
X128845237Y-72262438D01*
X128845237Y-72262438D02*
X128702380Y-72214819D01*
X128702380Y-72214819D02*
X128607142Y-72214819D01*
X128607142Y-72214819D02*
X128464285Y-72262438D01*
X128464285Y-72262438D02*
X128416666Y-72310057D01*
X127559523Y-72214819D02*
X127749999Y-72214819D01*
X127749999Y-72214819D02*
X127845237Y-72262438D01*
X127845237Y-72262438D02*
X127892856Y-72310057D01*
X127892856Y-72310057D02*
X127988094Y-72452914D01*
X127988094Y-72452914D02*
X128035713Y-72643390D01*
X128035713Y-72643390D02*
X128035713Y-73024342D01*
X128035713Y-73024342D02*
X127988094Y-73119580D01*
X127988094Y-73119580D02*
X127940475Y-73167200D01*
X127940475Y-73167200D02*
X127845237Y-73214819D01*
X127845237Y-73214819D02*
X127654761Y-73214819D01*
X127654761Y-73214819D02*
X127559523Y-73167200D01*
X127559523Y-73167200D02*
X127511904Y-73119580D01*
X127511904Y-73119580D02*
X127464285Y-73024342D01*
X127464285Y-73024342D02*
X127464285Y-72786247D01*
X127464285Y-72786247D02*
X127511904Y-72691009D01*
X127511904Y-72691009D02*
X127559523Y-72643390D01*
X127559523Y-72643390D02*
X127654761Y-72595771D01*
X127654761Y-72595771D02*
X127845237Y-72595771D01*
X127845237Y-72595771D02*
X127940475Y-72643390D01*
X127940475Y-72643390D02*
X127988094Y-72691009D01*
X127988094Y-72691009D02*
X128035713Y-72786247D01*
X100762857Y-50084819D02*
X101096190Y-49608628D01*
X101334285Y-50084819D02*
X101334285Y-49084819D01*
X101334285Y-49084819D02*
X100953333Y-49084819D01*
X100953333Y-49084819D02*
X100858095Y-49132438D01*
X100858095Y-49132438D02*
X100810476Y-49180057D01*
X100810476Y-49180057D02*
X100762857Y-49275295D01*
X100762857Y-49275295D02*
X100762857Y-49418152D01*
X100762857Y-49418152D02*
X100810476Y-49513390D01*
X100810476Y-49513390D02*
X100858095Y-49561009D01*
X100858095Y-49561009D02*
X100953333Y-49608628D01*
X100953333Y-49608628D02*
X101334285Y-49608628D01*
X99810476Y-50084819D02*
X100381904Y-50084819D01*
X100096190Y-50084819D02*
X100096190Y-49084819D01*
X100096190Y-49084819D02*
X100191428Y-49227676D01*
X100191428Y-49227676D02*
X100286666Y-49322914D01*
X100286666Y-49322914D02*
X100381904Y-49370533D01*
X99477142Y-49084819D02*
X98810476Y-49084819D01*
X98810476Y-49084819D02*
X99239047Y-50084819D01*
X116249580Y-33258242D02*
X116297200Y-33210623D01*
X116297200Y-33210623D02*
X116344819Y-33067766D01*
X116344819Y-33067766D02*
X116344819Y-32972528D01*
X116344819Y-32972528D02*
X116297200Y-32829671D01*
X116297200Y-32829671D02*
X116201961Y-32734433D01*
X116201961Y-32734433D02*
X116106723Y-32686814D01*
X116106723Y-32686814D02*
X115916247Y-32639195D01*
X115916247Y-32639195D02*
X115773390Y-32639195D01*
X115773390Y-32639195D02*
X115582914Y-32686814D01*
X115582914Y-32686814D02*
X115487676Y-32734433D01*
X115487676Y-32734433D02*
X115392438Y-32829671D01*
X115392438Y-32829671D02*
X115344819Y-32972528D01*
X115344819Y-32972528D02*
X115344819Y-33067766D01*
X115344819Y-33067766D02*
X115392438Y-33210623D01*
X115392438Y-33210623D02*
X115440057Y-33258242D01*
X116344819Y-34210623D02*
X116344819Y-33639195D01*
X116344819Y-33924909D02*
X115344819Y-33924909D01*
X115344819Y-33924909D02*
X115487676Y-33829671D01*
X115487676Y-33829671D02*
X115582914Y-33734433D01*
X115582914Y-33734433D02*
X115630533Y-33639195D01*
X115344819Y-35067766D02*
X115344819Y-34877290D01*
X115344819Y-34877290D02*
X115392438Y-34782052D01*
X115392438Y-34782052D02*
X115440057Y-34734433D01*
X115440057Y-34734433D02*
X115582914Y-34639195D01*
X115582914Y-34639195D02*
X115773390Y-34591576D01*
X115773390Y-34591576D02*
X116154342Y-34591576D01*
X116154342Y-34591576D02*
X116249580Y-34639195D01*
X116249580Y-34639195D02*
X116297200Y-34686814D01*
X116297200Y-34686814D02*
X116344819Y-34782052D01*
X116344819Y-34782052D02*
X116344819Y-34972528D01*
X116344819Y-34972528D02*
X116297200Y-35067766D01*
X116297200Y-35067766D02*
X116249580Y-35115385D01*
X116249580Y-35115385D02*
X116154342Y-35163004D01*
X116154342Y-35163004D02*
X115916247Y-35163004D01*
X115916247Y-35163004D02*
X115821009Y-35115385D01*
X115821009Y-35115385D02*
X115773390Y-35067766D01*
X115773390Y-35067766D02*
X115725771Y-34972528D01*
X115725771Y-34972528D02*
X115725771Y-34782052D01*
X115725771Y-34782052D02*
X115773390Y-34686814D01*
X115773390Y-34686814D02*
X115821009Y-34639195D01*
X115821009Y-34639195D02*
X115916247Y-34591576D01*
X78037857Y-76779819D02*
X78371190Y-76303628D01*
X78609285Y-76779819D02*
X78609285Y-75779819D01*
X78609285Y-75779819D02*
X78228333Y-75779819D01*
X78228333Y-75779819D02*
X78133095Y-75827438D01*
X78133095Y-75827438D02*
X78085476Y-75875057D01*
X78085476Y-75875057D02*
X78037857Y-75970295D01*
X78037857Y-75970295D02*
X78037857Y-76113152D01*
X78037857Y-76113152D02*
X78085476Y-76208390D01*
X78085476Y-76208390D02*
X78133095Y-76256009D01*
X78133095Y-76256009D02*
X78228333Y-76303628D01*
X78228333Y-76303628D02*
X78609285Y-76303628D01*
X77704523Y-75779819D02*
X77085476Y-75779819D01*
X77085476Y-75779819D02*
X77418809Y-76160771D01*
X77418809Y-76160771D02*
X77275952Y-76160771D01*
X77275952Y-76160771D02*
X77180714Y-76208390D01*
X77180714Y-76208390D02*
X77133095Y-76256009D01*
X77133095Y-76256009D02*
X77085476Y-76351247D01*
X77085476Y-76351247D02*
X77085476Y-76589342D01*
X77085476Y-76589342D02*
X77133095Y-76684580D01*
X77133095Y-76684580D02*
X77180714Y-76732200D01*
X77180714Y-76732200D02*
X77275952Y-76779819D01*
X77275952Y-76779819D02*
X77561666Y-76779819D01*
X77561666Y-76779819D02*
X77656904Y-76732200D01*
X77656904Y-76732200D02*
X77704523Y-76684580D01*
X76228333Y-75779819D02*
X76418809Y-75779819D01*
X76418809Y-75779819D02*
X76514047Y-75827438D01*
X76514047Y-75827438D02*
X76561666Y-75875057D01*
X76561666Y-75875057D02*
X76656904Y-76017914D01*
X76656904Y-76017914D02*
X76704523Y-76208390D01*
X76704523Y-76208390D02*
X76704523Y-76589342D01*
X76704523Y-76589342D02*
X76656904Y-76684580D01*
X76656904Y-76684580D02*
X76609285Y-76732200D01*
X76609285Y-76732200D02*
X76514047Y-76779819D01*
X76514047Y-76779819D02*
X76323571Y-76779819D01*
X76323571Y-76779819D02*
X76228333Y-76732200D01*
X76228333Y-76732200D02*
X76180714Y-76684580D01*
X76180714Y-76684580D02*
X76133095Y-76589342D01*
X76133095Y-76589342D02*
X76133095Y-76351247D01*
X76133095Y-76351247D02*
X76180714Y-76256009D01*
X76180714Y-76256009D02*
X76228333Y-76208390D01*
X76228333Y-76208390D02*
X76323571Y-76160771D01*
X76323571Y-76160771D02*
X76514047Y-76160771D01*
X76514047Y-76160771D02*
X76609285Y-76208390D01*
X76609285Y-76208390D02*
X76656904Y-76256009D01*
X76656904Y-76256009D02*
X76704523Y-76351247D01*
X84448094Y-46424819D02*
X84448094Y-45424819D01*
X84448094Y-45424819D02*
X84209999Y-45424819D01*
X84209999Y-45424819D02*
X84067142Y-45472438D01*
X84067142Y-45472438D02*
X83971904Y-45567676D01*
X83971904Y-45567676D02*
X83924285Y-45662914D01*
X83924285Y-45662914D02*
X83876666Y-45853390D01*
X83876666Y-45853390D02*
X83876666Y-45996247D01*
X83876666Y-45996247D02*
X83924285Y-46186723D01*
X83924285Y-46186723D02*
X83971904Y-46281961D01*
X83971904Y-46281961D02*
X84067142Y-46377200D01*
X84067142Y-46377200D02*
X84209999Y-46424819D01*
X84209999Y-46424819D02*
X84448094Y-46424819D01*
X82924285Y-46424819D02*
X83495713Y-46424819D01*
X83209999Y-46424819D02*
X83209999Y-45424819D01*
X83209999Y-45424819D02*
X83305237Y-45567676D01*
X83305237Y-45567676D02*
X83400475Y-45662914D01*
X83400475Y-45662914D02*
X83495713Y-45710533D01*
X80822857Y-29484819D02*
X81156190Y-29008628D01*
X81394285Y-29484819D02*
X81394285Y-28484819D01*
X81394285Y-28484819D02*
X81013333Y-28484819D01*
X81013333Y-28484819D02*
X80918095Y-28532438D01*
X80918095Y-28532438D02*
X80870476Y-28580057D01*
X80870476Y-28580057D02*
X80822857Y-28675295D01*
X80822857Y-28675295D02*
X80822857Y-28818152D01*
X80822857Y-28818152D02*
X80870476Y-28913390D01*
X80870476Y-28913390D02*
X80918095Y-28961009D01*
X80918095Y-28961009D02*
X81013333Y-29008628D01*
X81013333Y-29008628D02*
X81394285Y-29008628D01*
X80441904Y-28580057D02*
X80394285Y-28532438D01*
X80394285Y-28532438D02*
X80299047Y-28484819D01*
X80299047Y-28484819D02*
X80060952Y-28484819D01*
X80060952Y-28484819D02*
X79965714Y-28532438D01*
X79965714Y-28532438D02*
X79918095Y-28580057D01*
X79918095Y-28580057D02*
X79870476Y-28675295D01*
X79870476Y-28675295D02*
X79870476Y-28770533D01*
X79870476Y-28770533D02*
X79918095Y-28913390D01*
X79918095Y-28913390D02*
X80489523Y-29484819D01*
X80489523Y-29484819D02*
X79870476Y-29484819D01*
X79537142Y-28484819D02*
X78870476Y-28484819D01*
X78870476Y-28484819D02*
X79299047Y-29484819D01*
X108232857Y-42404819D02*
X108566190Y-41928628D01*
X108804285Y-42404819D02*
X108804285Y-41404819D01*
X108804285Y-41404819D02*
X108423333Y-41404819D01*
X108423333Y-41404819D02*
X108328095Y-41452438D01*
X108328095Y-41452438D02*
X108280476Y-41500057D01*
X108280476Y-41500057D02*
X108232857Y-41595295D01*
X108232857Y-41595295D02*
X108232857Y-41738152D01*
X108232857Y-41738152D02*
X108280476Y-41833390D01*
X108280476Y-41833390D02*
X108328095Y-41881009D01*
X108328095Y-41881009D02*
X108423333Y-41928628D01*
X108423333Y-41928628D02*
X108804285Y-41928628D01*
X107851904Y-41500057D02*
X107804285Y-41452438D01*
X107804285Y-41452438D02*
X107709047Y-41404819D01*
X107709047Y-41404819D02*
X107470952Y-41404819D01*
X107470952Y-41404819D02*
X107375714Y-41452438D01*
X107375714Y-41452438D02*
X107328095Y-41500057D01*
X107328095Y-41500057D02*
X107280476Y-41595295D01*
X107280476Y-41595295D02*
X107280476Y-41690533D01*
X107280476Y-41690533D02*
X107328095Y-41833390D01*
X107328095Y-41833390D02*
X107899523Y-42404819D01*
X107899523Y-42404819D02*
X107280476Y-42404819D01*
X106899523Y-41500057D02*
X106851904Y-41452438D01*
X106851904Y-41452438D02*
X106756666Y-41404819D01*
X106756666Y-41404819D02*
X106518571Y-41404819D01*
X106518571Y-41404819D02*
X106423333Y-41452438D01*
X106423333Y-41452438D02*
X106375714Y-41500057D01*
X106375714Y-41500057D02*
X106328095Y-41595295D01*
X106328095Y-41595295D02*
X106328095Y-41690533D01*
X106328095Y-41690533D02*
X106375714Y-41833390D01*
X106375714Y-41833390D02*
X106947142Y-42404819D01*
X106947142Y-42404819D02*
X106328095Y-42404819D01*
X80858094Y-31784819D02*
X80858094Y-30784819D01*
X80858094Y-30784819D02*
X80619999Y-30784819D01*
X80619999Y-30784819D02*
X80477142Y-30832438D01*
X80477142Y-30832438D02*
X80381904Y-30927676D01*
X80381904Y-30927676D02*
X80334285Y-31022914D01*
X80334285Y-31022914D02*
X80286666Y-31213390D01*
X80286666Y-31213390D02*
X80286666Y-31356247D01*
X80286666Y-31356247D02*
X80334285Y-31546723D01*
X80334285Y-31546723D02*
X80381904Y-31641961D01*
X80381904Y-31641961D02*
X80477142Y-31737200D01*
X80477142Y-31737200D02*
X80619999Y-31784819D01*
X80619999Y-31784819D02*
X80858094Y-31784819D01*
X79953332Y-30784819D02*
X79334285Y-30784819D01*
X79334285Y-30784819D02*
X79667618Y-31165771D01*
X79667618Y-31165771D02*
X79524761Y-31165771D01*
X79524761Y-31165771D02*
X79429523Y-31213390D01*
X79429523Y-31213390D02*
X79381904Y-31261009D01*
X79381904Y-31261009D02*
X79334285Y-31356247D01*
X79334285Y-31356247D02*
X79334285Y-31594342D01*
X79334285Y-31594342D02*
X79381904Y-31689580D01*
X79381904Y-31689580D02*
X79429523Y-31737200D01*
X79429523Y-31737200D02*
X79524761Y-31784819D01*
X79524761Y-31784819D02*
X79810475Y-31784819D01*
X79810475Y-31784819D02*
X79905713Y-31737200D01*
X79905713Y-31737200D02*
X79953332Y-31689580D01*
X114611819Y-72688742D02*
X114135628Y-72355409D01*
X114611819Y-72117314D02*
X113611819Y-72117314D01*
X113611819Y-72117314D02*
X113611819Y-72498266D01*
X113611819Y-72498266D02*
X113659438Y-72593504D01*
X113659438Y-72593504D02*
X113707057Y-72641123D01*
X113707057Y-72641123D02*
X113802295Y-72688742D01*
X113802295Y-72688742D02*
X113945152Y-72688742D01*
X113945152Y-72688742D02*
X114040390Y-72641123D01*
X114040390Y-72641123D02*
X114088009Y-72593504D01*
X114088009Y-72593504D02*
X114135628Y-72498266D01*
X114135628Y-72498266D02*
X114135628Y-72117314D01*
X113707057Y-73069695D02*
X113659438Y-73117314D01*
X113659438Y-73117314D02*
X113611819Y-73212552D01*
X113611819Y-73212552D02*
X113611819Y-73450647D01*
X113611819Y-73450647D02*
X113659438Y-73545885D01*
X113659438Y-73545885D02*
X113707057Y-73593504D01*
X113707057Y-73593504D02*
X113802295Y-73641123D01*
X113802295Y-73641123D02*
X113897533Y-73641123D01*
X113897533Y-73641123D02*
X114040390Y-73593504D01*
X114040390Y-73593504D02*
X114611819Y-73022076D01*
X114611819Y-73022076D02*
X114611819Y-73641123D01*
X113945152Y-74498266D02*
X114611819Y-74498266D01*
X113564200Y-74260171D02*
X114278485Y-74022076D01*
X114278485Y-74022076D02*
X114278485Y-74641123D01*
X82654819Y-37577142D02*
X82178628Y-37243809D01*
X82654819Y-37005714D02*
X81654819Y-37005714D01*
X81654819Y-37005714D02*
X81654819Y-37386666D01*
X81654819Y-37386666D02*
X81702438Y-37481904D01*
X81702438Y-37481904D02*
X81750057Y-37529523D01*
X81750057Y-37529523D02*
X81845295Y-37577142D01*
X81845295Y-37577142D02*
X81988152Y-37577142D01*
X81988152Y-37577142D02*
X82083390Y-37529523D01*
X82083390Y-37529523D02*
X82131009Y-37481904D01*
X82131009Y-37481904D02*
X82178628Y-37386666D01*
X82178628Y-37386666D02*
X82178628Y-37005714D01*
X81750057Y-37958095D02*
X81702438Y-38005714D01*
X81702438Y-38005714D02*
X81654819Y-38100952D01*
X81654819Y-38100952D02*
X81654819Y-38339047D01*
X81654819Y-38339047D02*
X81702438Y-38434285D01*
X81702438Y-38434285D02*
X81750057Y-38481904D01*
X81750057Y-38481904D02*
X81845295Y-38529523D01*
X81845295Y-38529523D02*
X81940533Y-38529523D01*
X81940533Y-38529523D02*
X82083390Y-38481904D01*
X82083390Y-38481904D02*
X82654819Y-37910476D01*
X82654819Y-37910476D02*
X82654819Y-38529523D01*
X81654819Y-39386666D02*
X81654819Y-39196190D01*
X81654819Y-39196190D02*
X81702438Y-39100952D01*
X81702438Y-39100952D02*
X81750057Y-39053333D01*
X81750057Y-39053333D02*
X81892914Y-38958095D01*
X81892914Y-38958095D02*
X82083390Y-38910476D01*
X82083390Y-38910476D02*
X82464342Y-38910476D01*
X82464342Y-38910476D02*
X82559580Y-38958095D01*
X82559580Y-38958095D02*
X82607200Y-39005714D01*
X82607200Y-39005714D02*
X82654819Y-39100952D01*
X82654819Y-39100952D02*
X82654819Y-39291428D01*
X82654819Y-39291428D02*
X82607200Y-39386666D01*
X82607200Y-39386666D02*
X82559580Y-39434285D01*
X82559580Y-39434285D02*
X82464342Y-39481904D01*
X82464342Y-39481904D02*
X82226247Y-39481904D01*
X82226247Y-39481904D02*
X82131009Y-39434285D01*
X82131009Y-39434285D02*
X82083390Y-39386666D01*
X82083390Y-39386666D02*
X82035771Y-39291428D01*
X82035771Y-39291428D02*
X82035771Y-39100952D01*
X82035771Y-39100952D02*
X82083390Y-39005714D01*
X82083390Y-39005714D02*
X82131009Y-38958095D01*
X82131009Y-38958095D02*
X82226247Y-38910476D01*
X117718666Y-53825780D02*
X117766285Y-53873400D01*
X117766285Y-53873400D02*
X117909142Y-53921019D01*
X117909142Y-53921019D02*
X118004380Y-53921019D01*
X118004380Y-53921019D02*
X118147237Y-53873400D01*
X118147237Y-53873400D02*
X118242475Y-53778161D01*
X118242475Y-53778161D02*
X118290094Y-53682923D01*
X118290094Y-53682923D02*
X118337713Y-53492447D01*
X118337713Y-53492447D02*
X118337713Y-53349590D01*
X118337713Y-53349590D02*
X118290094Y-53159114D01*
X118290094Y-53159114D02*
X118242475Y-53063876D01*
X118242475Y-53063876D02*
X118147237Y-52968638D01*
X118147237Y-52968638D02*
X118004380Y-52921019D01*
X118004380Y-52921019D02*
X117909142Y-52921019D01*
X117909142Y-52921019D02*
X117766285Y-52968638D01*
X117766285Y-52968638D02*
X117718666Y-53016257D01*
X117385332Y-52921019D02*
X116718666Y-52921019D01*
X116718666Y-52921019D02*
X117147237Y-53921019D01*
X94051904Y-39214819D02*
X94051904Y-40024342D01*
X94051904Y-40024342D02*
X94004285Y-40119580D01*
X94004285Y-40119580D02*
X93956666Y-40167200D01*
X93956666Y-40167200D02*
X93861428Y-40214819D01*
X93861428Y-40214819D02*
X93670952Y-40214819D01*
X93670952Y-40214819D02*
X93575714Y-40167200D01*
X93575714Y-40167200D02*
X93528095Y-40119580D01*
X93528095Y-40119580D02*
X93480476Y-40024342D01*
X93480476Y-40024342D02*
X93480476Y-39214819D01*
X93099523Y-39214819D02*
X92480476Y-39214819D01*
X92480476Y-39214819D02*
X92813809Y-39595771D01*
X92813809Y-39595771D02*
X92670952Y-39595771D01*
X92670952Y-39595771D02*
X92575714Y-39643390D01*
X92575714Y-39643390D02*
X92528095Y-39691009D01*
X92528095Y-39691009D02*
X92480476Y-39786247D01*
X92480476Y-39786247D02*
X92480476Y-40024342D01*
X92480476Y-40024342D02*
X92528095Y-40119580D01*
X92528095Y-40119580D02*
X92575714Y-40167200D01*
X92575714Y-40167200D02*
X92670952Y-40214819D01*
X92670952Y-40214819D02*
X92956666Y-40214819D01*
X92956666Y-40214819D02*
X93051904Y-40167200D01*
X93051904Y-40167200D02*
X93099523Y-40119580D01*
X130212857Y-67334819D02*
X130546190Y-66858628D01*
X130784285Y-67334819D02*
X130784285Y-66334819D01*
X130784285Y-66334819D02*
X130403333Y-66334819D01*
X130403333Y-66334819D02*
X130308095Y-66382438D01*
X130308095Y-66382438D02*
X130260476Y-66430057D01*
X130260476Y-66430057D02*
X130212857Y-66525295D01*
X130212857Y-66525295D02*
X130212857Y-66668152D01*
X130212857Y-66668152D02*
X130260476Y-66763390D01*
X130260476Y-66763390D02*
X130308095Y-66811009D01*
X130308095Y-66811009D02*
X130403333Y-66858628D01*
X130403333Y-66858628D02*
X130784285Y-66858628D01*
X129879523Y-66334819D02*
X129260476Y-66334819D01*
X129260476Y-66334819D02*
X129593809Y-66715771D01*
X129593809Y-66715771D02*
X129450952Y-66715771D01*
X129450952Y-66715771D02*
X129355714Y-66763390D01*
X129355714Y-66763390D02*
X129308095Y-66811009D01*
X129308095Y-66811009D02*
X129260476Y-66906247D01*
X129260476Y-66906247D02*
X129260476Y-67144342D01*
X129260476Y-67144342D02*
X129308095Y-67239580D01*
X129308095Y-67239580D02*
X129355714Y-67287200D01*
X129355714Y-67287200D02*
X129450952Y-67334819D01*
X129450952Y-67334819D02*
X129736666Y-67334819D01*
X129736666Y-67334819D02*
X129831904Y-67287200D01*
X129831904Y-67287200D02*
X129879523Y-67239580D01*
X128927142Y-66334819D02*
X128260476Y-66334819D01*
X128260476Y-66334819D02*
X128689047Y-67334819D01*
X123144819Y-43677142D02*
X122668628Y-43343809D01*
X123144819Y-43105714D02*
X122144819Y-43105714D01*
X122144819Y-43105714D02*
X122144819Y-43486666D01*
X122144819Y-43486666D02*
X122192438Y-43581904D01*
X122192438Y-43581904D02*
X122240057Y-43629523D01*
X122240057Y-43629523D02*
X122335295Y-43677142D01*
X122335295Y-43677142D02*
X122478152Y-43677142D01*
X122478152Y-43677142D02*
X122573390Y-43629523D01*
X122573390Y-43629523D02*
X122621009Y-43581904D01*
X122621009Y-43581904D02*
X122668628Y-43486666D01*
X122668628Y-43486666D02*
X122668628Y-43105714D01*
X123144819Y-44629523D02*
X123144819Y-44058095D01*
X123144819Y-44343809D02*
X122144819Y-44343809D01*
X122144819Y-44343809D02*
X122287676Y-44248571D01*
X122287676Y-44248571D02*
X122382914Y-44153333D01*
X122382914Y-44153333D02*
X122430533Y-44058095D01*
X122478152Y-45486666D02*
X123144819Y-45486666D01*
X122097200Y-45248571D02*
X122811485Y-45010476D01*
X122811485Y-45010476D02*
X122811485Y-45629523D01*
X116931266Y-38154819D02*
X117407456Y-38154819D01*
X117407456Y-38154819D02*
X117407456Y-37154819D01*
X116074123Y-38154819D02*
X116645551Y-38154819D01*
X116359837Y-38154819D02*
X116359837Y-37154819D01*
X116359837Y-37154819D02*
X116455075Y-37297676D01*
X116455075Y-37297676D02*
X116550313Y-37392914D01*
X116550313Y-37392914D02*
X116645551Y-37440533D01*
X95952857Y-25929580D02*
X96000476Y-25977200D01*
X96000476Y-25977200D02*
X96143333Y-26024819D01*
X96143333Y-26024819D02*
X96238571Y-26024819D01*
X96238571Y-26024819D02*
X96381428Y-25977200D01*
X96381428Y-25977200D02*
X96476666Y-25881961D01*
X96476666Y-25881961D02*
X96524285Y-25786723D01*
X96524285Y-25786723D02*
X96571904Y-25596247D01*
X96571904Y-25596247D02*
X96571904Y-25453390D01*
X96571904Y-25453390D02*
X96524285Y-25262914D01*
X96524285Y-25262914D02*
X96476666Y-25167676D01*
X96476666Y-25167676D02*
X96381428Y-25072438D01*
X96381428Y-25072438D02*
X96238571Y-25024819D01*
X96238571Y-25024819D02*
X96143333Y-25024819D01*
X96143333Y-25024819D02*
X96000476Y-25072438D01*
X96000476Y-25072438D02*
X95952857Y-25120057D01*
X95000476Y-26024819D02*
X95571904Y-26024819D01*
X95286190Y-26024819D02*
X95286190Y-25024819D01*
X95286190Y-25024819D02*
X95381428Y-25167676D01*
X95381428Y-25167676D02*
X95476666Y-25262914D01*
X95476666Y-25262914D02*
X95571904Y-25310533D01*
X94429047Y-25453390D02*
X94524285Y-25405771D01*
X94524285Y-25405771D02*
X94571904Y-25358152D01*
X94571904Y-25358152D02*
X94619523Y-25262914D01*
X94619523Y-25262914D02*
X94619523Y-25215295D01*
X94619523Y-25215295D02*
X94571904Y-25120057D01*
X94571904Y-25120057D02*
X94524285Y-25072438D01*
X94524285Y-25072438D02*
X94429047Y-25024819D01*
X94429047Y-25024819D02*
X94238571Y-25024819D01*
X94238571Y-25024819D02*
X94143333Y-25072438D01*
X94143333Y-25072438D02*
X94095714Y-25120057D01*
X94095714Y-25120057D02*
X94048095Y-25215295D01*
X94048095Y-25215295D02*
X94048095Y-25262914D01*
X94048095Y-25262914D02*
X94095714Y-25358152D01*
X94095714Y-25358152D02*
X94143333Y-25405771D01*
X94143333Y-25405771D02*
X94238571Y-25453390D01*
X94238571Y-25453390D02*
X94429047Y-25453390D01*
X94429047Y-25453390D02*
X94524285Y-25501009D01*
X94524285Y-25501009D02*
X94571904Y-25548628D01*
X94571904Y-25548628D02*
X94619523Y-25643866D01*
X94619523Y-25643866D02*
X94619523Y-25834342D01*
X94619523Y-25834342D02*
X94571904Y-25929580D01*
X94571904Y-25929580D02*
X94524285Y-25977200D01*
X94524285Y-25977200D02*
X94429047Y-26024819D01*
X94429047Y-26024819D02*
X94238571Y-26024819D01*
X94238571Y-26024819D02*
X94143333Y-25977200D01*
X94143333Y-25977200D02*
X94095714Y-25929580D01*
X94095714Y-25929580D02*
X94048095Y-25834342D01*
X94048095Y-25834342D02*
X94048095Y-25643866D01*
X94048095Y-25643866D02*
X94095714Y-25548628D01*
X94095714Y-25548628D02*
X94143333Y-25501009D01*
X94143333Y-25501009D02*
X94238571Y-25453390D01*
X75748254Y-25279819D02*
X76081587Y-24803628D01*
X76319682Y-25279819D02*
X76319682Y-24279819D01*
X76319682Y-24279819D02*
X75938730Y-24279819D01*
X75938730Y-24279819D02*
X75843492Y-24327438D01*
X75843492Y-24327438D02*
X75795873Y-24375057D01*
X75795873Y-24375057D02*
X75748254Y-24470295D01*
X75748254Y-24470295D02*
X75748254Y-24613152D01*
X75748254Y-24613152D02*
X75795873Y-24708390D01*
X75795873Y-24708390D02*
X75843492Y-24756009D01*
X75843492Y-24756009D02*
X75938730Y-24803628D01*
X75938730Y-24803628D02*
X76319682Y-24803628D01*
X75367301Y-24375057D02*
X75319682Y-24327438D01*
X75319682Y-24327438D02*
X75224444Y-24279819D01*
X75224444Y-24279819D02*
X74986349Y-24279819D01*
X74986349Y-24279819D02*
X74891111Y-24327438D01*
X74891111Y-24327438D02*
X74843492Y-24375057D01*
X74843492Y-24375057D02*
X74795873Y-24470295D01*
X74795873Y-24470295D02*
X74795873Y-24565533D01*
X74795873Y-24565533D02*
X74843492Y-24708390D01*
X74843492Y-24708390D02*
X75414920Y-25279819D01*
X75414920Y-25279819D02*
X74795873Y-25279819D01*
X74319682Y-25279819D02*
X74129206Y-25279819D01*
X74129206Y-25279819D02*
X74033968Y-25232200D01*
X74033968Y-25232200D02*
X73986349Y-25184580D01*
X73986349Y-25184580D02*
X73891111Y-25041723D01*
X73891111Y-25041723D02*
X73843492Y-24851247D01*
X73843492Y-24851247D02*
X73843492Y-24470295D01*
X73843492Y-24470295D02*
X73891111Y-24375057D01*
X73891111Y-24375057D02*
X73938730Y-24327438D01*
X73938730Y-24327438D02*
X74033968Y-24279819D01*
X74033968Y-24279819D02*
X74224444Y-24279819D01*
X74224444Y-24279819D02*
X74319682Y-24327438D01*
X74319682Y-24327438D02*
X74367301Y-24375057D01*
X74367301Y-24375057D02*
X74414920Y-24470295D01*
X74414920Y-24470295D02*
X74414920Y-24708390D01*
X74414920Y-24708390D02*
X74367301Y-24803628D01*
X74367301Y-24803628D02*
X74319682Y-24851247D01*
X74319682Y-24851247D02*
X74224444Y-24898866D01*
X74224444Y-24898866D02*
X74033968Y-24898866D01*
X74033968Y-24898866D02*
X73938730Y-24851247D01*
X73938730Y-24851247D02*
X73891111Y-24803628D01*
X73891111Y-24803628D02*
X73843492Y-24708390D01*
X124294819Y-34323333D02*
X123818628Y-33990000D01*
X124294819Y-33751905D02*
X123294819Y-33751905D01*
X123294819Y-33751905D02*
X123294819Y-34132857D01*
X123294819Y-34132857D02*
X123342438Y-34228095D01*
X123342438Y-34228095D02*
X123390057Y-34275714D01*
X123390057Y-34275714D02*
X123485295Y-34323333D01*
X123485295Y-34323333D02*
X123628152Y-34323333D01*
X123628152Y-34323333D02*
X123723390Y-34275714D01*
X123723390Y-34275714D02*
X123771009Y-34228095D01*
X123771009Y-34228095D02*
X123818628Y-34132857D01*
X123818628Y-34132857D02*
X123818628Y-33751905D01*
X123294819Y-35228095D02*
X123294819Y-34751905D01*
X123294819Y-34751905D02*
X123771009Y-34704286D01*
X123771009Y-34704286D02*
X123723390Y-34751905D01*
X123723390Y-34751905D02*
X123675771Y-34847143D01*
X123675771Y-34847143D02*
X123675771Y-35085238D01*
X123675771Y-35085238D02*
X123723390Y-35180476D01*
X123723390Y-35180476D02*
X123771009Y-35228095D01*
X123771009Y-35228095D02*
X123866247Y-35275714D01*
X123866247Y-35275714D02*
X124104342Y-35275714D01*
X124104342Y-35275714D02*
X124199580Y-35228095D01*
X124199580Y-35228095D02*
X124247200Y-35180476D01*
X124247200Y-35180476D02*
X124294819Y-35085238D01*
X124294819Y-35085238D02*
X124294819Y-34847143D01*
X124294819Y-34847143D02*
X124247200Y-34751905D01*
X124247200Y-34751905D02*
X124199580Y-34704286D01*
X123204819Y-47297142D02*
X122728628Y-46963809D01*
X123204819Y-46725714D02*
X122204819Y-46725714D01*
X122204819Y-46725714D02*
X122204819Y-47106666D01*
X122204819Y-47106666D02*
X122252438Y-47201904D01*
X122252438Y-47201904D02*
X122300057Y-47249523D01*
X122300057Y-47249523D02*
X122395295Y-47297142D01*
X122395295Y-47297142D02*
X122538152Y-47297142D01*
X122538152Y-47297142D02*
X122633390Y-47249523D01*
X122633390Y-47249523D02*
X122681009Y-47201904D01*
X122681009Y-47201904D02*
X122728628Y-47106666D01*
X122728628Y-47106666D02*
X122728628Y-46725714D01*
X123204819Y-48249523D02*
X123204819Y-47678095D01*
X123204819Y-47963809D02*
X122204819Y-47963809D01*
X122204819Y-47963809D02*
X122347676Y-47868571D01*
X122347676Y-47868571D02*
X122442914Y-47773333D01*
X122442914Y-47773333D02*
X122490533Y-47678095D01*
X122204819Y-49106666D02*
X122204819Y-48916190D01*
X122204819Y-48916190D02*
X122252438Y-48820952D01*
X122252438Y-48820952D02*
X122300057Y-48773333D01*
X122300057Y-48773333D02*
X122442914Y-48678095D01*
X122442914Y-48678095D02*
X122633390Y-48630476D01*
X122633390Y-48630476D02*
X123014342Y-48630476D01*
X123014342Y-48630476D02*
X123109580Y-48678095D01*
X123109580Y-48678095D02*
X123157200Y-48725714D01*
X123157200Y-48725714D02*
X123204819Y-48820952D01*
X123204819Y-48820952D02*
X123204819Y-49011428D01*
X123204819Y-49011428D02*
X123157200Y-49106666D01*
X123157200Y-49106666D02*
X123109580Y-49154285D01*
X123109580Y-49154285D02*
X123014342Y-49201904D01*
X123014342Y-49201904D02*
X122776247Y-49201904D01*
X122776247Y-49201904D02*
X122681009Y-49154285D01*
X122681009Y-49154285D02*
X122633390Y-49106666D01*
X122633390Y-49106666D02*
X122585771Y-49011428D01*
X122585771Y-49011428D02*
X122585771Y-48820952D01*
X122585771Y-48820952D02*
X122633390Y-48725714D01*
X122633390Y-48725714D02*
X122681009Y-48678095D01*
X122681009Y-48678095D02*
X122776247Y-48630476D01*
X85229857Y-26957419D02*
X85563190Y-26481228D01*
X85801285Y-26957419D02*
X85801285Y-25957419D01*
X85801285Y-25957419D02*
X85420333Y-25957419D01*
X85420333Y-25957419D02*
X85325095Y-26005038D01*
X85325095Y-26005038D02*
X85277476Y-26052657D01*
X85277476Y-26052657D02*
X85229857Y-26147895D01*
X85229857Y-26147895D02*
X85229857Y-26290752D01*
X85229857Y-26290752D02*
X85277476Y-26385990D01*
X85277476Y-26385990D02*
X85325095Y-26433609D01*
X85325095Y-26433609D02*
X85420333Y-26481228D01*
X85420333Y-26481228D02*
X85801285Y-26481228D01*
X84848904Y-26052657D02*
X84801285Y-26005038D01*
X84801285Y-26005038D02*
X84706047Y-25957419D01*
X84706047Y-25957419D02*
X84467952Y-25957419D01*
X84467952Y-25957419D02*
X84372714Y-26005038D01*
X84372714Y-26005038D02*
X84325095Y-26052657D01*
X84325095Y-26052657D02*
X84277476Y-26147895D01*
X84277476Y-26147895D02*
X84277476Y-26243133D01*
X84277476Y-26243133D02*
X84325095Y-26385990D01*
X84325095Y-26385990D02*
X84896523Y-26957419D01*
X84896523Y-26957419D02*
X84277476Y-26957419D01*
X83706047Y-26385990D02*
X83801285Y-26338371D01*
X83801285Y-26338371D02*
X83848904Y-26290752D01*
X83848904Y-26290752D02*
X83896523Y-26195514D01*
X83896523Y-26195514D02*
X83896523Y-26147895D01*
X83896523Y-26147895D02*
X83848904Y-26052657D01*
X83848904Y-26052657D02*
X83801285Y-26005038D01*
X83801285Y-26005038D02*
X83706047Y-25957419D01*
X83706047Y-25957419D02*
X83515571Y-25957419D01*
X83515571Y-25957419D02*
X83420333Y-26005038D01*
X83420333Y-26005038D02*
X83372714Y-26052657D01*
X83372714Y-26052657D02*
X83325095Y-26147895D01*
X83325095Y-26147895D02*
X83325095Y-26195514D01*
X83325095Y-26195514D02*
X83372714Y-26290752D01*
X83372714Y-26290752D02*
X83420333Y-26338371D01*
X83420333Y-26338371D02*
X83515571Y-26385990D01*
X83515571Y-26385990D02*
X83706047Y-26385990D01*
X83706047Y-26385990D02*
X83801285Y-26433609D01*
X83801285Y-26433609D02*
X83848904Y-26481228D01*
X83848904Y-26481228D02*
X83896523Y-26576466D01*
X83896523Y-26576466D02*
X83896523Y-26766942D01*
X83896523Y-26766942D02*
X83848904Y-26862180D01*
X83848904Y-26862180D02*
X83801285Y-26909800D01*
X83801285Y-26909800D02*
X83706047Y-26957419D01*
X83706047Y-26957419D02*
X83515571Y-26957419D01*
X83515571Y-26957419D02*
X83420333Y-26909800D01*
X83420333Y-26909800D02*
X83372714Y-26862180D01*
X83372714Y-26862180D02*
X83325095Y-26766942D01*
X83325095Y-26766942D02*
X83325095Y-26576466D01*
X83325095Y-26576466D02*
X83372714Y-26481228D01*
X83372714Y-26481228D02*
X83420333Y-26433609D01*
X83420333Y-26433609D02*
X83515571Y-26385990D01*
X127526666Y-70894819D02*
X127859999Y-70418628D01*
X128098094Y-70894819D02*
X128098094Y-69894819D01*
X128098094Y-69894819D02*
X127717142Y-69894819D01*
X127717142Y-69894819D02*
X127621904Y-69942438D01*
X127621904Y-69942438D02*
X127574285Y-69990057D01*
X127574285Y-69990057D02*
X127526666Y-70085295D01*
X127526666Y-70085295D02*
X127526666Y-70228152D01*
X127526666Y-70228152D02*
X127574285Y-70323390D01*
X127574285Y-70323390D02*
X127621904Y-70371009D01*
X127621904Y-70371009D02*
X127717142Y-70418628D01*
X127717142Y-70418628D02*
X128098094Y-70418628D01*
X127145713Y-69990057D02*
X127098094Y-69942438D01*
X127098094Y-69942438D02*
X127002856Y-69894819D01*
X127002856Y-69894819D02*
X126764761Y-69894819D01*
X126764761Y-69894819D02*
X126669523Y-69942438D01*
X126669523Y-69942438D02*
X126621904Y-69990057D01*
X126621904Y-69990057D02*
X126574285Y-70085295D01*
X126574285Y-70085295D02*
X126574285Y-70180533D01*
X126574285Y-70180533D02*
X126621904Y-70323390D01*
X126621904Y-70323390D02*
X127193332Y-70894819D01*
X127193332Y-70894819D02*
X126574285Y-70894819D01*
X116581819Y-72688742D02*
X116105628Y-72355409D01*
X116581819Y-72117314D02*
X115581819Y-72117314D01*
X115581819Y-72117314D02*
X115581819Y-72498266D01*
X115581819Y-72498266D02*
X115629438Y-72593504D01*
X115629438Y-72593504D02*
X115677057Y-72641123D01*
X115677057Y-72641123D02*
X115772295Y-72688742D01*
X115772295Y-72688742D02*
X115915152Y-72688742D01*
X115915152Y-72688742D02*
X116010390Y-72641123D01*
X116010390Y-72641123D02*
X116058009Y-72593504D01*
X116058009Y-72593504D02*
X116105628Y-72498266D01*
X116105628Y-72498266D02*
X116105628Y-72117314D01*
X115677057Y-73069695D02*
X115629438Y-73117314D01*
X115629438Y-73117314D02*
X115581819Y-73212552D01*
X115581819Y-73212552D02*
X115581819Y-73450647D01*
X115581819Y-73450647D02*
X115629438Y-73545885D01*
X115629438Y-73545885D02*
X115677057Y-73593504D01*
X115677057Y-73593504D02*
X115772295Y-73641123D01*
X115772295Y-73641123D02*
X115867533Y-73641123D01*
X115867533Y-73641123D02*
X116010390Y-73593504D01*
X116010390Y-73593504D02*
X116581819Y-73022076D01*
X116581819Y-73022076D02*
X116581819Y-73641123D01*
X115581819Y-73974457D02*
X115581819Y-74593504D01*
X115581819Y-74593504D02*
X115962771Y-74260171D01*
X115962771Y-74260171D02*
X115962771Y-74403028D01*
X115962771Y-74403028D02*
X116010390Y-74498266D01*
X116010390Y-74498266D02*
X116058009Y-74545885D01*
X116058009Y-74545885D02*
X116153247Y-74593504D01*
X116153247Y-74593504D02*
X116391342Y-74593504D01*
X116391342Y-74593504D02*
X116486580Y-74545885D01*
X116486580Y-74545885D02*
X116534200Y-74498266D01*
X116534200Y-74498266D02*
X116581819Y-74403028D01*
X116581819Y-74403028D02*
X116581819Y-74117314D01*
X116581819Y-74117314D02*
X116534200Y-74022076D01*
X116534200Y-74022076D02*
X116486580Y-73974457D01*
X100792857Y-46214819D02*
X101126190Y-45738628D01*
X101364285Y-46214819D02*
X101364285Y-45214819D01*
X101364285Y-45214819D02*
X100983333Y-45214819D01*
X100983333Y-45214819D02*
X100888095Y-45262438D01*
X100888095Y-45262438D02*
X100840476Y-45310057D01*
X100840476Y-45310057D02*
X100792857Y-45405295D01*
X100792857Y-45405295D02*
X100792857Y-45548152D01*
X100792857Y-45548152D02*
X100840476Y-45643390D01*
X100840476Y-45643390D02*
X100888095Y-45691009D01*
X100888095Y-45691009D02*
X100983333Y-45738628D01*
X100983333Y-45738628D02*
X101364285Y-45738628D01*
X99840476Y-46214819D02*
X100411904Y-46214819D01*
X100126190Y-46214819D02*
X100126190Y-45214819D01*
X100126190Y-45214819D02*
X100221428Y-45357676D01*
X100221428Y-45357676D02*
X100316666Y-45452914D01*
X100316666Y-45452914D02*
X100411904Y-45500533D01*
X99364285Y-46214819D02*
X99173809Y-46214819D01*
X99173809Y-46214819D02*
X99078571Y-46167200D01*
X99078571Y-46167200D02*
X99030952Y-46119580D01*
X99030952Y-46119580D02*
X98935714Y-45976723D01*
X98935714Y-45976723D02*
X98888095Y-45786247D01*
X98888095Y-45786247D02*
X98888095Y-45405295D01*
X98888095Y-45405295D02*
X98935714Y-45310057D01*
X98935714Y-45310057D02*
X98983333Y-45262438D01*
X98983333Y-45262438D02*
X99078571Y-45214819D01*
X99078571Y-45214819D02*
X99269047Y-45214819D01*
X99269047Y-45214819D02*
X99364285Y-45262438D01*
X99364285Y-45262438D02*
X99411904Y-45310057D01*
X99411904Y-45310057D02*
X99459523Y-45405295D01*
X99459523Y-45405295D02*
X99459523Y-45643390D01*
X99459523Y-45643390D02*
X99411904Y-45738628D01*
X99411904Y-45738628D02*
X99364285Y-45786247D01*
X99364285Y-45786247D02*
X99269047Y-45833866D01*
X99269047Y-45833866D02*
X99078571Y-45833866D01*
X99078571Y-45833866D02*
X98983333Y-45786247D01*
X98983333Y-45786247D02*
X98935714Y-45738628D01*
X98935714Y-45738628D02*
X98888095Y-45643390D01*
X84158094Y-31774819D02*
X84158094Y-30774819D01*
X84158094Y-30774819D02*
X83919999Y-30774819D01*
X83919999Y-30774819D02*
X83777142Y-30822438D01*
X83777142Y-30822438D02*
X83681904Y-30917676D01*
X83681904Y-30917676D02*
X83634285Y-31012914D01*
X83634285Y-31012914D02*
X83586666Y-31203390D01*
X83586666Y-31203390D02*
X83586666Y-31346247D01*
X83586666Y-31346247D02*
X83634285Y-31536723D01*
X83634285Y-31536723D02*
X83681904Y-31631961D01*
X83681904Y-31631961D02*
X83777142Y-31727200D01*
X83777142Y-31727200D02*
X83919999Y-31774819D01*
X83919999Y-31774819D02*
X84158094Y-31774819D01*
X83205713Y-30870057D02*
X83158094Y-30822438D01*
X83158094Y-30822438D02*
X83062856Y-30774819D01*
X83062856Y-30774819D02*
X82824761Y-30774819D01*
X82824761Y-30774819D02*
X82729523Y-30822438D01*
X82729523Y-30822438D02*
X82681904Y-30870057D01*
X82681904Y-30870057D02*
X82634285Y-30965295D01*
X82634285Y-30965295D02*
X82634285Y-31060533D01*
X82634285Y-31060533D02*
X82681904Y-31203390D01*
X82681904Y-31203390D02*
X83253332Y-31774819D01*
X83253332Y-31774819D02*
X82634285Y-31774819D01*
X124776666Y-51034819D02*
X125109999Y-50558628D01*
X125348094Y-51034819D02*
X125348094Y-50034819D01*
X125348094Y-50034819D02*
X124967142Y-50034819D01*
X124967142Y-50034819D02*
X124871904Y-50082438D01*
X124871904Y-50082438D02*
X124824285Y-50130057D01*
X124824285Y-50130057D02*
X124776666Y-50225295D01*
X124776666Y-50225295D02*
X124776666Y-50368152D01*
X124776666Y-50368152D02*
X124824285Y-50463390D01*
X124824285Y-50463390D02*
X124871904Y-50511009D01*
X124871904Y-50511009D02*
X124967142Y-50558628D01*
X124967142Y-50558628D02*
X125348094Y-50558628D01*
X123824285Y-51034819D02*
X124395713Y-51034819D01*
X124109999Y-51034819D02*
X124109999Y-50034819D01*
X124109999Y-50034819D02*
X124205237Y-50177676D01*
X124205237Y-50177676D02*
X124300475Y-50272914D01*
X124300475Y-50272914D02*
X124395713Y-50320533D01*
X114938457Y-53785780D02*
X114986076Y-53833400D01*
X114986076Y-53833400D02*
X115128933Y-53881019D01*
X115128933Y-53881019D02*
X115224171Y-53881019D01*
X115224171Y-53881019D02*
X115367028Y-53833400D01*
X115367028Y-53833400D02*
X115462266Y-53738161D01*
X115462266Y-53738161D02*
X115509885Y-53642923D01*
X115509885Y-53642923D02*
X115557504Y-53452447D01*
X115557504Y-53452447D02*
X115557504Y-53309590D01*
X115557504Y-53309590D02*
X115509885Y-53119114D01*
X115509885Y-53119114D02*
X115462266Y-53023876D01*
X115462266Y-53023876D02*
X115367028Y-52928638D01*
X115367028Y-52928638D02*
X115224171Y-52881019D01*
X115224171Y-52881019D02*
X115128933Y-52881019D01*
X115128933Y-52881019D02*
X114986076Y-52928638D01*
X114986076Y-52928638D02*
X114938457Y-52976257D01*
X113986076Y-53881019D02*
X114557504Y-53881019D01*
X114271790Y-53881019D02*
X114271790Y-52881019D01*
X114271790Y-52881019D02*
X114367028Y-53023876D01*
X114367028Y-53023876D02*
X114462266Y-53119114D01*
X114462266Y-53119114D02*
X114557504Y-53166733D01*
X113367028Y-52881019D02*
X113271790Y-52881019D01*
X113271790Y-52881019D02*
X113176552Y-52928638D01*
X113176552Y-52928638D02*
X113128933Y-52976257D01*
X113128933Y-52976257D02*
X113081314Y-53071495D01*
X113081314Y-53071495D02*
X113033695Y-53261971D01*
X113033695Y-53261971D02*
X113033695Y-53500066D01*
X113033695Y-53500066D02*
X113081314Y-53690542D01*
X113081314Y-53690542D02*
X113128933Y-53785780D01*
X113128933Y-53785780D02*
X113176552Y-53833400D01*
X113176552Y-53833400D02*
X113271790Y-53881019D01*
X113271790Y-53881019D02*
X113367028Y-53881019D01*
X113367028Y-53881019D02*
X113462266Y-53833400D01*
X113462266Y-53833400D02*
X113509885Y-53785780D01*
X113509885Y-53785780D02*
X113557504Y-53690542D01*
X113557504Y-53690542D02*
X113605123Y-53500066D01*
X113605123Y-53500066D02*
X113605123Y-53261971D01*
X113605123Y-53261971D02*
X113557504Y-53071495D01*
X113557504Y-53071495D02*
X113509885Y-52976257D01*
X113509885Y-52976257D02*
X113462266Y-52928638D01*
X113462266Y-52928638D02*
X113367028Y-52881019D01*
X74211904Y-40514819D02*
X74211904Y-41324342D01*
X74211904Y-41324342D02*
X74164285Y-41419580D01*
X74164285Y-41419580D02*
X74116666Y-41467200D01*
X74116666Y-41467200D02*
X74021428Y-41514819D01*
X74021428Y-41514819D02*
X73830952Y-41514819D01*
X73830952Y-41514819D02*
X73735714Y-41467200D01*
X73735714Y-41467200D02*
X73688095Y-41419580D01*
X73688095Y-41419580D02*
X73640476Y-41324342D01*
X73640476Y-41324342D02*
X73640476Y-40514819D01*
X73211904Y-40610057D02*
X73164285Y-40562438D01*
X73164285Y-40562438D02*
X73069047Y-40514819D01*
X73069047Y-40514819D02*
X72830952Y-40514819D01*
X72830952Y-40514819D02*
X72735714Y-40562438D01*
X72735714Y-40562438D02*
X72688095Y-40610057D01*
X72688095Y-40610057D02*
X72640476Y-40705295D01*
X72640476Y-40705295D02*
X72640476Y-40800533D01*
X72640476Y-40800533D02*
X72688095Y-40943390D01*
X72688095Y-40943390D02*
X73259523Y-41514819D01*
X73259523Y-41514819D02*
X72640476Y-41514819D01*
X91332857Y-35849580D02*
X91380476Y-35897200D01*
X91380476Y-35897200D02*
X91523333Y-35944819D01*
X91523333Y-35944819D02*
X91618571Y-35944819D01*
X91618571Y-35944819D02*
X91761428Y-35897200D01*
X91761428Y-35897200D02*
X91856666Y-35801961D01*
X91856666Y-35801961D02*
X91904285Y-35706723D01*
X91904285Y-35706723D02*
X91951904Y-35516247D01*
X91951904Y-35516247D02*
X91951904Y-35373390D01*
X91951904Y-35373390D02*
X91904285Y-35182914D01*
X91904285Y-35182914D02*
X91856666Y-35087676D01*
X91856666Y-35087676D02*
X91761428Y-34992438D01*
X91761428Y-34992438D02*
X91618571Y-34944819D01*
X91618571Y-34944819D02*
X91523333Y-34944819D01*
X91523333Y-34944819D02*
X91380476Y-34992438D01*
X91380476Y-34992438D02*
X91332857Y-35040057D01*
X90380476Y-35944819D02*
X90951904Y-35944819D01*
X90666190Y-35944819D02*
X90666190Y-34944819D01*
X90666190Y-34944819D02*
X90761428Y-35087676D01*
X90761428Y-35087676D02*
X90856666Y-35182914D01*
X90856666Y-35182914D02*
X90951904Y-35230533D01*
X90047142Y-34944819D02*
X89428095Y-34944819D01*
X89428095Y-34944819D02*
X89761428Y-35325771D01*
X89761428Y-35325771D02*
X89618571Y-35325771D01*
X89618571Y-35325771D02*
X89523333Y-35373390D01*
X89523333Y-35373390D02*
X89475714Y-35421009D01*
X89475714Y-35421009D02*
X89428095Y-35516247D01*
X89428095Y-35516247D02*
X89428095Y-35754342D01*
X89428095Y-35754342D02*
X89475714Y-35849580D01*
X89475714Y-35849580D02*
X89523333Y-35897200D01*
X89523333Y-35897200D02*
X89618571Y-35944819D01*
X89618571Y-35944819D02*
X89904285Y-35944819D01*
X89904285Y-35944819D02*
X89999523Y-35897200D01*
X89999523Y-35897200D02*
X90047142Y-35849580D01*
X108252857Y-51974819D02*
X108586190Y-51498628D01*
X108824285Y-51974819D02*
X108824285Y-50974819D01*
X108824285Y-50974819D02*
X108443333Y-50974819D01*
X108443333Y-50974819D02*
X108348095Y-51022438D01*
X108348095Y-51022438D02*
X108300476Y-51070057D01*
X108300476Y-51070057D02*
X108252857Y-51165295D01*
X108252857Y-51165295D02*
X108252857Y-51308152D01*
X108252857Y-51308152D02*
X108300476Y-51403390D01*
X108300476Y-51403390D02*
X108348095Y-51451009D01*
X108348095Y-51451009D02*
X108443333Y-51498628D01*
X108443333Y-51498628D02*
X108824285Y-51498628D01*
X107871904Y-51070057D02*
X107824285Y-51022438D01*
X107824285Y-51022438D02*
X107729047Y-50974819D01*
X107729047Y-50974819D02*
X107490952Y-50974819D01*
X107490952Y-50974819D02*
X107395714Y-51022438D01*
X107395714Y-51022438D02*
X107348095Y-51070057D01*
X107348095Y-51070057D02*
X107300476Y-51165295D01*
X107300476Y-51165295D02*
X107300476Y-51260533D01*
X107300476Y-51260533D02*
X107348095Y-51403390D01*
X107348095Y-51403390D02*
X107919523Y-51974819D01*
X107919523Y-51974819D02*
X107300476Y-51974819D01*
X106681428Y-50974819D02*
X106586190Y-50974819D01*
X106586190Y-50974819D02*
X106490952Y-51022438D01*
X106490952Y-51022438D02*
X106443333Y-51070057D01*
X106443333Y-51070057D02*
X106395714Y-51165295D01*
X106395714Y-51165295D02*
X106348095Y-51355771D01*
X106348095Y-51355771D02*
X106348095Y-51593866D01*
X106348095Y-51593866D02*
X106395714Y-51784342D01*
X106395714Y-51784342D02*
X106443333Y-51879580D01*
X106443333Y-51879580D02*
X106490952Y-51927200D01*
X106490952Y-51927200D02*
X106586190Y-51974819D01*
X106586190Y-51974819D02*
X106681428Y-51974819D01*
X106681428Y-51974819D02*
X106776666Y-51927200D01*
X106776666Y-51927200D02*
X106824285Y-51879580D01*
X106824285Y-51879580D02*
X106871904Y-51784342D01*
X106871904Y-51784342D02*
X106919523Y-51593866D01*
X106919523Y-51593866D02*
X106919523Y-51355771D01*
X106919523Y-51355771D02*
X106871904Y-51165295D01*
X106871904Y-51165295D02*
X106824285Y-51070057D01*
X106824285Y-51070057D02*
X106776666Y-51022438D01*
X106776666Y-51022438D02*
X106681428Y-50974819D01*
X88482857Y-34849580D02*
X88530476Y-34897200D01*
X88530476Y-34897200D02*
X88673333Y-34944819D01*
X88673333Y-34944819D02*
X88768571Y-34944819D01*
X88768571Y-34944819D02*
X88911428Y-34897200D01*
X88911428Y-34897200D02*
X89006666Y-34801961D01*
X89006666Y-34801961D02*
X89054285Y-34706723D01*
X89054285Y-34706723D02*
X89101904Y-34516247D01*
X89101904Y-34516247D02*
X89101904Y-34373390D01*
X89101904Y-34373390D02*
X89054285Y-34182914D01*
X89054285Y-34182914D02*
X89006666Y-34087676D01*
X89006666Y-34087676D02*
X88911428Y-33992438D01*
X88911428Y-33992438D02*
X88768571Y-33944819D01*
X88768571Y-33944819D02*
X88673333Y-33944819D01*
X88673333Y-33944819D02*
X88530476Y-33992438D01*
X88530476Y-33992438D02*
X88482857Y-34040057D01*
X87530476Y-34944819D02*
X88101904Y-34944819D01*
X87816190Y-34944819D02*
X87816190Y-33944819D01*
X87816190Y-33944819D02*
X87911428Y-34087676D01*
X87911428Y-34087676D02*
X88006666Y-34182914D01*
X88006666Y-34182914D02*
X88101904Y-34230533D01*
X86578095Y-34944819D02*
X87149523Y-34944819D01*
X86863809Y-34944819D02*
X86863809Y-33944819D01*
X86863809Y-33944819D02*
X86959047Y-34087676D01*
X86959047Y-34087676D02*
X87054285Y-34182914D01*
X87054285Y-34182914D02*
X87149523Y-34230533D01*
X87347857Y-31739819D02*
X87681190Y-31263628D01*
X87919285Y-31739819D02*
X87919285Y-30739819D01*
X87919285Y-30739819D02*
X87538333Y-30739819D01*
X87538333Y-30739819D02*
X87443095Y-30787438D01*
X87443095Y-30787438D02*
X87395476Y-30835057D01*
X87395476Y-30835057D02*
X87347857Y-30930295D01*
X87347857Y-30930295D02*
X87347857Y-31073152D01*
X87347857Y-31073152D02*
X87395476Y-31168390D01*
X87395476Y-31168390D02*
X87443095Y-31216009D01*
X87443095Y-31216009D02*
X87538333Y-31263628D01*
X87538333Y-31263628D02*
X87919285Y-31263628D01*
X87014523Y-30739819D02*
X86395476Y-30739819D01*
X86395476Y-30739819D02*
X86728809Y-31120771D01*
X86728809Y-31120771D02*
X86585952Y-31120771D01*
X86585952Y-31120771D02*
X86490714Y-31168390D01*
X86490714Y-31168390D02*
X86443095Y-31216009D01*
X86443095Y-31216009D02*
X86395476Y-31311247D01*
X86395476Y-31311247D02*
X86395476Y-31549342D01*
X86395476Y-31549342D02*
X86443095Y-31644580D01*
X86443095Y-31644580D02*
X86490714Y-31692200D01*
X86490714Y-31692200D02*
X86585952Y-31739819D01*
X86585952Y-31739819D02*
X86871666Y-31739819D01*
X86871666Y-31739819D02*
X86966904Y-31692200D01*
X86966904Y-31692200D02*
X87014523Y-31644580D01*
X86014523Y-30835057D02*
X85966904Y-30787438D01*
X85966904Y-30787438D02*
X85871666Y-30739819D01*
X85871666Y-30739819D02*
X85633571Y-30739819D01*
X85633571Y-30739819D02*
X85538333Y-30787438D01*
X85538333Y-30787438D02*
X85490714Y-30835057D01*
X85490714Y-30835057D02*
X85443095Y-30930295D01*
X85443095Y-30930295D02*
X85443095Y-31025533D01*
X85443095Y-31025533D02*
X85490714Y-31168390D01*
X85490714Y-31168390D02*
X86062142Y-31739819D01*
X86062142Y-31739819D02*
X85443095Y-31739819D01*
X128484819Y-31357142D02*
X128008628Y-31023809D01*
X128484819Y-30785714D02*
X127484819Y-30785714D01*
X127484819Y-30785714D02*
X127484819Y-31166666D01*
X127484819Y-31166666D02*
X127532438Y-31261904D01*
X127532438Y-31261904D02*
X127580057Y-31309523D01*
X127580057Y-31309523D02*
X127675295Y-31357142D01*
X127675295Y-31357142D02*
X127818152Y-31357142D01*
X127818152Y-31357142D02*
X127913390Y-31309523D01*
X127913390Y-31309523D02*
X127961009Y-31261904D01*
X127961009Y-31261904D02*
X128008628Y-31166666D01*
X128008628Y-31166666D02*
X128008628Y-30785714D01*
X127484819Y-31690476D02*
X127484819Y-32309523D01*
X127484819Y-32309523D02*
X127865771Y-31976190D01*
X127865771Y-31976190D02*
X127865771Y-32119047D01*
X127865771Y-32119047D02*
X127913390Y-32214285D01*
X127913390Y-32214285D02*
X127961009Y-32261904D01*
X127961009Y-32261904D02*
X128056247Y-32309523D01*
X128056247Y-32309523D02*
X128294342Y-32309523D01*
X128294342Y-32309523D02*
X128389580Y-32261904D01*
X128389580Y-32261904D02*
X128437200Y-32214285D01*
X128437200Y-32214285D02*
X128484819Y-32119047D01*
X128484819Y-32119047D02*
X128484819Y-31833333D01*
X128484819Y-31833333D02*
X128437200Y-31738095D01*
X128437200Y-31738095D02*
X128389580Y-31690476D01*
X127913390Y-32880952D02*
X127865771Y-32785714D01*
X127865771Y-32785714D02*
X127818152Y-32738095D01*
X127818152Y-32738095D02*
X127722914Y-32690476D01*
X127722914Y-32690476D02*
X127675295Y-32690476D01*
X127675295Y-32690476D02*
X127580057Y-32738095D01*
X127580057Y-32738095D02*
X127532438Y-32785714D01*
X127532438Y-32785714D02*
X127484819Y-32880952D01*
X127484819Y-32880952D02*
X127484819Y-33071428D01*
X127484819Y-33071428D02*
X127532438Y-33166666D01*
X127532438Y-33166666D02*
X127580057Y-33214285D01*
X127580057Y-33214285D02*
X127675295Y-33261904D01*
X127675295Y-33261904D02*
X127722914Y-33261904D01*
X127722914Y-33261904D02*
X127818152Y-33214285D01*
X127818152Y-33214285D02*
X127865771Y-33166666D01*
X127865771Y-33166666D02*
X127913390Y-33071428D01*
X127913390Y-33071428D02*
X127913390Y-32880952D01*
X127913390Y-32880952D02*
X127961009Y-32785714D01*
X127961009Y-32785714D02*
X128008628Y-32738095D01*
X128008628Y-32738095D02*
X128103866Y-32690476D01*
X128103866Y-32690476D02*
X128294342Y-32690476D01*
X128294342Y-32690476D02*
X128389580Y-32738095D01*
X128389580Y-32738095D02*
X128437200Y-32785714D01*
X128437200Y-32785714D02*
X128484819Y-32880952D01*
X128484819Y-32880952D02*
X128484819Y-33071428D01*
X128484819Y-33071428D02*
X128437200Y-33166666D01*
X128437200Y-33166666D02*
X128389580Y-33214285D01*
X128389580Y-33214285D02*
X128294342Y-33261904D01*
X128294342Y-33261904D02*
X128103866Y-33261904D01*
X128103866Y-33261904D02*
X128008628Y-33214285D01*
X128008628Y-33214285D02*
X127961009Y-33166666D01*
X127961009Y-33166666D02*
X127913390Y-33071428D01*
X108272857Y-43774819D02*
X108606190Y-43298628D01*
X108844285Y-43774819D02*
X108844285Y-42774819D01*
X108844285Y-42774819D02*
X108463333Y-42774819D01*
X108463333Y-42774819D02*
X108368095Y-42822438D01*
X108368095Y-42822438D02*
X108320476Y-42870057D01*
X108320476Y-42870057D02*
X108272857Y-42965295D01*
X108272857Y-42965295D02*
X108272857Y-43108152D01*
X108272857Y-43108152D02*
X108320476Y-43203390D01*
X108320476Y-43203390D02*
X108368095Y-43251009D01*
X108368095Y-43251009D02*
X108463333Y-43298628D01*
X108463333Y-43298628D02*
X108844285Y-43298628D01*
X107891904Y-42870057D02*
X107844285Y-42822438D01*
X107844285Y-42822438D02*
X107749047Y-42774819D01*
X107749047Y-42774819D02*
X107510952Y-42774819D01*
X107510952Y-42774819D02*
X107415714Y-42822438D01*
X107415714Y-42822438D02*
X107368095Y-42870057D01*
X107368095Y-42870057D02*
X107320476Y-42965295D01*
X107320476Y-42965295D02*
X107320476Y-43060533D01*
X107320476Y-43060533D02*
X107368095Y-43203390D01*
X107368095Y-43203390D02*
X107939523Y-43774819D01*
X107939523Y-43774819D02*
X107320476Y-43774819D01*
X106368095Y-43774819D02*
X106939523Y-43774819D01*
X106653809Y-43774819D02*
X106653809Y-42774819D01*
X106653809Y-42774819D02*
X106749047Y-42917676D01*
X106749047Y-42917676D02*
X106844285Y-43012914D01*
X106844285Y-43012914D02*
X106939523Y-43060533D01*
X92836666Y-30114819D02*
X93312856Y-30114819D01*
X93312856Y-30114819D02*
X93312856Y-29114819D01*
X92550951Y-29210057D02*
X92503332Y-29162438D01*
X92503332Y-29162438D02*
X92408094Y-29114819D01*
X92408094Y-29114819D02*
X92169999Y-29114819D01*
X92169999Y-29114819D02*
X92074761Y-29162438D01*
X92074761Y-29162438D02*
X92027142Y-29210057D01*
X92027142Y-29210057D02*
X91979523Y-29305295D01*
X91979523Y-29305295D02*
X91979523Y-29400533D01*
X91979523Y-29400533D02*
X92027142Y-29543390D01*
X92027142Y-29543390D02*
X92598570Y-30114819D01*
X92598570Y-30114819D02*
X91979523Y-30114819D01*
X112671819Y-72668742D02*
X112195628Y-72335409D01*
X112671819Y-72097314D02*
X111671819Y-72097314D01*
X111671819Y-72097314D02*
X111671819Y-72478266D01*
X111671819Y-72478266D02*
X111719438Y-72573504D01*
X111719438Y-72573504D02*
X111767057Y-72621123D01*
X111767057Y-72621123D02*
X111862295Y-72668742D01*
X111862295Y-72668742D02*
X112005152Y-72668742D01*
X112005152Y-72668742D02*
X112100390Y-72621123D01*
X112100390Y-72621123D02*
X112148009Y-72573504D01*
X112148009Y-72573504D02*
X112195628Y-72478266D01*
X112195628Y-72478266D02*
X112195628Y-72097314D01*
X111767057Y-73049695D02*
X111719438Y-73097314D01*
X111719438Y-73097314D02*
X111671819Y-73192552D01*
X111671819Y-73192552D02*
X111671819Y-73430647D01*
X111671819Y-73430647D02*
X111719438Y-73525885D01*
X111719438Y-73525885D02*
X111767057Y-73573504D01*
X111767057Y-73573504D02*
X111862295Y-73621123D01*
X111862295Y-73621123D02*
X111957533Y-73621123D01*
X111957533Y-73621123D02*
X112100390Y-73573504D01*
X112100390Y-73573504D02*
X112671819Y-73002076D01*
X112671819Y-73002076D02*
X112671819Y-73621123D01*
X111671819Y-74525885D02*
X111671819Y-74049695D01*
X111671819Y-74049695D02*
X112148009Y-74002076D01*
X112148009Y-74002076D02*
X112100390Y-74049695D01*
X112100390Y-74049695D02*
X112052771Y-74144933D01*
X112052771Y-74144933D02*
X112052771Y-74383028D01*
X112052771Y-74383028D02*
X112100390Y-74478266D01*
X112100390Y-74478266D02*
X112148009Y-74525885D01*
X112148009Y-74525885D02*
X112243247Y-74573504D01*
X112243247Y-74573504D02*
X112481342Y-74573504D01*
X112481342Y-74573504D02*
X112576580Y-74525885D01*
X112576580Y-74525885D02*
X112624200Y-74478266D01*
X112624200Y-74478266D02*
X112671819Y-74383028D01*
X112671819Y-74383028D02*
X112671819Y-74144933D01*
X112671819Y-74144933D02*
X112624200Y-74049695D01*
X112624200Y-74049695D02*
X112576580Y-74002076D01*
X115762857Y-41924819D02*
X116096190Y-41448628D01*
X116334285Y-41924819D02*
X116334285Y-40924819D01*
X116334285Y-40924819D02*
X115953333Y-40924819D01*
X115953333Y-40924819D02*
X115858095Y-40972438D01*
X115858095Y-40972438D02*
X115810476Y-41020057D01*
X115810476Y-41020057D02*
X115762857Y-41115295D01*
X115762857Y-41115295D02*
X115762857Y-41258152D01*
X115762857Y-41258152D02*
X115810476Y-41353390D01*
X115810476Y-41353390D02*
X115858095Y-41401009D01*
X115858095Y-41401009D02*
X115953333Y-41448628D01*
X115953333Y-41448628D02*
X116334285Y-41448628D01*
X114810476Y-41924819D02*
X115381904Y-41924819D01*
X115096190Y-41924819D02*
X115096190Y-40924819D01*
X115096190Y-40924819D02*
X115191428Y-41067676D01*
X115191428Y-41067676D02*
X115286666Y-41162914D01*
X115286666Y-41162914D02*
X115381904Y-41210533D01*
X114477142Y-40924819D02*
X113858095Y-40924819D01*
X113858095Y-40924819D02*
X114191428Y-41305771D01*
X114191428Y-41305771D02*
X114048571Y-41305771D01*
X114048571Y-41305771D02*
X113953333Y-41353390D01*
X113953333Y-41353390D02*
X113905714Y-41401009D01*
X113905714Y-41401009D02*
X113858095Y-41496247D01*
X113858095Y-41496247D02*
X113858095Y-41734342D01*
X113858095Y-41734342D02*
X113905714Y-41829580D01*
X113905714Y-41829580D02*
X113953333Y-41877200D01*
X113953333Y-41877200D02*
X114048571Y-41924819D01*
X114048571Y-41924819D02*
X114334285Y-41924819D01*
X114334285Y-41924819D02*
X114429523Y-41877200D01*
X114429523Y-41877200D02*
X114477142Y-41829580D01*
X129636666Y-42609580D02*
X129684285Y-42657200D01*
X129684285Y-42657200D02*
X129827142Y-42704819D01*
X129827142Y-42704819D02*
X129922380Y-42704819D01*
X129922380Y-42704819D02*
X130065237Y-42657200D01*
X130065237Y-42657200D02*
X130160475Y-42561961D01*
X130160475Y-42561961D02*
X130208094Y-42466723D01*
X130208094Y-42466723D02*
X130255713Y-42276247D01*
X130255713Y-42276247D02*
X130255713Y-42133390D01*
X130255713Y-42133390D02*
X130208094Y-41942914D01*
X130208094Y-41942914D02*
X130160475Y-41847676D01*
X130160475Y-41847676D02*
X130065237Y-41752438D01*
X130065237Y-41752438D02*
X129922380Y-41704819D01*
X129922380Y-41704819D02*
X129827142Y-41704819D01*
X129827142Y-41704819D02*
X129684285Y-41752438D01*
X129684285Y-41752438D02*
X129636666Y-41800057D01*
X129255713Y-41800057D02*
X129208094Y-41752438D01*
X129208094Y-41752438D02*
X129112856Y-41704819D01*
X129112856Y-41704819D02*
X128874761Y-41704819D01*
X128874761Y-41704819D02*
X128779523Y-41752438D01*
X128779523Y-41752438D02*
X128731904Y-41800057D01*
X128731904Y-41800057D02*
X128684285Y-41895295D01*
X128684285Y-41895295D02*
X128684285Y-41990533D01*
X128684285Y-41990533D02*
X128731904Y-42133390D01*
X128731904Y-42133390D02*
X129303332Y-42704819D01*
X129303332Y-42704819D02*
X128684285Y-42704819D01*
X71642057Y-25191419D02*
X71975390Y-24715228D01*
X72213485Y-25191419D02*
X72213485Y-24191419D01*
X72213485Y-24191419D02*
X71832533Y-24191419D01*
X71832533Y-24191419D02*
X71737295Y-24239038D01*
X71737295Y-24239038D02*
X71689676Y-24286657D01*
X71689676Y-24286657D02*
X71642057Y-24381895D01*
X71642057Y-24381895D02*
X71642057Y-24524752D01*
X71642057Y-24524752D02*
X71689676Y-24619990D01*
X71689676Y-24619990D02*
X71737295Y-24667609D01*
X71737295Y-24667609D02*
X71832533Y-24715228D01*
X71832533Y-24715228D02*
X72213485Y-24715228D01*
X71308723Y-24191419D02*
X70689676Y-24191419D01*
X70689676Y-24191419D02*
X71023009Y-24572371D01*
X71023009Y-24572371D02*
X70880152Y-24572371D01*
X70880152Y-24572371D02*
X70784914Y-24619990D01*
X70784914Y-24619990D02*
X70737295Y-24667609D01*
X70737295Y-24667609D02*
X70689676Y-24762847D01*
X70689676Y-24762847D02*
X70689676Y-25000942D01*
X70689676Y-25000942D02*
X70737295Y-25096180D01*
X70737295Y-25096180D02*
X70784914Y-25143800D01*
X70784914Y-25143800D02*
X70880152Y-25191419D01*
X70880152Y-25191419D02*
X71165866Y-25191419D01*
X71165866Y-25191419D02*
X71261104Y-25143800D01*
X71261104Y-25143800D02*
X71308723Y-25096180D01*
X69832533Y-24524752D02*
X69832533Y-25191419D01*
X70070628Y-24143800D02*
X70308723Y-24858085D01*
X70308723Y-24858085D02*
X69689676Y-24858085D01*
X129586666Y-46129580D02*
X129634285Y-46177200D01*
X129634285Y-46177200D02*
X129777142Y-46224819D01*
X129777142Y-46224819D02*
X129872380Y-46224819D01*
X129872380Y-46224819D02*
X130015237Y-46177200D01*
X130015237Y-46177200D02*
X130110475Y-46081961D01*
X130110475Y-46081961D02*
X130158094Y-45986723D01*
X130158094Y-45986723D02*
X130205713Y-45796247D01*
X130205713Y-45796247D02*
X130205713Y-45653390D01*
X130205713Y-45653390D02*
X130158094Y-45462914D01*
X130158094Y-45462914D02*
X130110475Y-45367676D01*
X130110475Y-45367676D02*
X130015237Y-45272438D01*
X130015237Y-45272438D02*
X129872380Y-45224819D01*
X129872380Y-45224819D02*
X129777142Y-45224819D01*
X129777142Y-45224819D02*
X129634285Y-45272438D01*
X129634285Y-45272438D02*
X129586666Y-45320057D01*
X128634285Y-46224819D02*
X129205713Y-46224819D01*
X128919999Y-46224819D02*
X128919999Y-45224819D01*
X128919999Y-45224819D02*
X129015237Y-45367676D01*
X129015237Y-45367676D02*
X129110475Y-45462914D01*
X129110475Y-45462914D02*
X129205713Y-45510533D01*
X122239580Y-29687142D02*
X122287200Y-29639523D01*
X122287200Y-29639523D02*
X122334819Y-29496666D01*
X122334819Y-29496666D02*
X122334819Y-29401428D01*
X122334819Y-29401428D02*
X122287200Y-29258571D01*
X122287200Y-29258571D02*
X122191961Y-29163333D01*
X122191961Y-29163333D02*
X122096723Y-29115714D01*
X122096723Y-29115714D02*
X121906247Y-29068095D01*
X121906247Y-29068095D02*
X121763390Y-29068095D01*
X121763390Y-29068095D02*
X121572914Y-29115714D01*
X121572914Y-29115714D02*
X121477676Y-29163333D01*
X121477676Y-29163333D02*
X121382438Y-29258571D01*
X121382438Y-29258571D02*
X121334819Y-29401428D01*
X121334819Y-29401428D02*
X121334819Y-29496666D01*
X121334819Y-29496666D02*
X121382438Y-29639523D01*
X121382438Y-29639523D02*
X121430057Y-29687142D01*
X122334819Y-30639523D02*
X122334819Y-30068095D01*
X122334819Y-30353809D02*
X121334819Y-30353809D01*
X121334819Y-30353809D02*
X121477676Y-30258571D01*
X121477676Y-30258571D02*
X121572914Y-30163333D01*
X121572914Y-30163333D02*
X121620533Y-30068095D01*
X121430057Y-31020476D02*
X121382438Y-31068095D01*
X121382438Y-31068095D02*
X121334819Y-31163333D01*
X121334819Y-31163333D02*
X121334819Y-31401428D01*
X121334819Y-31401428D02*
X121382438Y-31496666D01*
X121382438Y-31496666D02*
X121430057Y-31544285D01*
X121430057Y-31544285D02*
X121525295Y-31591904D01*
X121525295Y-31591904D02*
X121620533Y-31591904D01*
X121620533Y-31591904D02*
X121763390Y-31544285D01*
X121763390Y-31544285D02*
X122334819Y-30972857D01*
X122334819Y-30972857D02*
X122334819Y-31591904D01*
X112876666Y-45799580D02*
X112924285Y-45847200D01*
X112924285Y-45847200D02*
X113067142Y-45894819D01*
X113067142Y-45894819D02*
X113162380Y-45894819D01*
X113162380Y-45894819D02*
X113305237Y-45847200D01*
X113305237Y-45847200D02*
X113400475Y-45751961D01*
X113400475Y-45751961D02*
X113448094Y-45656723D01*
X113448094Y-45656723D02*
X113495713Y-45466247D01*
X113495713Y-45466247D02*
X113495713Y-45323390D01*
X113495713Y-45323390D02*
X113448094Y-45132914D01*
X113448094Y-45132914D02*
X113400475Y-45037676D01*
X113400475Y-45037676D02*
X113305237Y-44942438D01*
X113305237Y-44942438D02*
X113162380Y-44894819D01*
X113162380Y-44894819D02*
X113067142Y-44894819D01*
X113067142Y-44894819D02*
X112924285Y-44942438D01*
X112924285Y-44942438D02*
X112876666Y-44990057D01*
X111971904Y-44894819D02*
X112448094Y-44894819D01*
X112448094Y-44894819D02*
X112495713Y-45371009D01*
X112495713Y-45371009D02*
X112448094Y-45323390D01*
X112448094Y-45323390D02*
X112352856Y-45275771D01*
X112352856Y-45275771D02*
X112114761Y-45275771D01*
X112114761Y-45275771D02*
X112019523Y-45323390D01*
X112019523Y-45323390D02*
X111971904Y-45371009D01*
X111971904Y-45371009D02*
X111924285Y-45466247D01*
X111924285Y-45466247D02*
X111924285Y-45704342D01*
X111924285Y-45704342D02*
X111971904Y-45799580D01*
X111971904Y-45799580D02*
X112019523Y-45847200D01*
X112019523Y-45847200D02*
X112114761Y-45894819D01*
X112114761Y-45894819D02*
X112352856Y-45894819D01*
X112352856Y-45894819D02*
X112448094Y-45847200D01*
X112448094Y-45847200D02*
X112495713Y-45799580D01*
X100862857Y-48174819D02*
X101196190Y-47698628D01*
X101434285Y-48174819D02*
X101434285Y-47174819D01*
X101434285Y-47174819D02*
X101053333Y-47174819D01*
X101053333Y-47174819D02*
X100958095Y-47222438D01*
X100958095Y-47222438D02*
X100910476Y-47270057D01*
X100910476Y-47270057D02*
X100862857Y-47365295D01*
X100862857Y-47365295D02*
X100862857Y-47508152D01*
X100862857Y-47508152D02*
X100910476Y-47603390D01*
X100910476Y-47603390D02*
X100958095Y-47651009D01*
X100958095Y-47651009D02*
X101053333Y-47698628D01*
X101053333Y-47698628D02*
X101434285Y-47698628D01*
X99910476Y-48174819D02*
X100481904Y-48174819D01*
X100196190Y-48174819D02*
X100196190Y-47174819D01*
X100196190Y-47174819D02*
X100291428Y-47317676D01*
X100291428Y-47317676D02*
X100386666Y-47412914D01*
X100386666Y-47412914D02*
X100481904Y-47460533D01*
X99339047Y-47603390D02*
X99434285Y-47555771D01*
X99434285Y-47555771D02*
X99481904Y-47508152D01*
X99481904Y-47508152D02*
X99529523Y-47412914D01*
X99529523Y-47412914D02*
X99529523Y-47365295D01*
X99529523Y-47365295D02*
X99481904Y-47270057D01*
X99481904Y-47270057D02*
X99434285Y-47222438D01*
X99434285Y-47222438D02*
X99339047Y-47174819D01*
X99339047Y-47174819D02*
X99148571Y-47174819D01*
X99148571Y-47174819D02*
X99053333Y-47222438D01*
X99053333Y-47222438D02*
X99005714Y-47270057D01*
X99005714Y-47270057D02*
X98958095Y-47365295D01*
X98958095Y-47365295D02*
X98958095Y-47412914D01*
X98958095Y-47412914D02*
X99005714Y-47508152D01*
X99005714Y-47508152D02*
X99053333Y-47555771D01*
X99053333Y-47555771D02*
X99148571Y-47603390D01*
X99148571Y-47603390D02*
X99339047Y-47603390D01*
X99339047Y-47603390D02*
X99434285Y-47651009D01*
X99434285Y-47651009D02*
X99481904Y-47698628D01*
X99481904Y-47698628D02*
X99529523Y-47793866D01*
X99529523Y-47793866D02*
X99529523Y-47984342D01*
X99529523Y-47984342D02*
X99481904Y-48079580D01*
X99481904Y-48079580D02*
X99434285Y-48127200D01*
X99434285Y-48127200D02*
X99339047Y-48174819D01*
X99339047Y-48174819D02*
X99148571Y-48174819D01*
X99148571Y-48174819D02*
X99053333Y-48127200D01*
X99053333Y-48127200D02*
X99005714Y-48079580D01*
X99005714Y-48079580D02*
X98958095Y-47984342D01*
X98958095Y-47984342D02*
X98958095Y-47793866D01*
X98958095Y-47793866D02*
X99005714Y-47698628D01*
X99005714Y-47698628D02*
X99053333Y-47651009D01*
X99053333Y-47651009D02*
X99148571Y-47603390D01*
X80209580Y-38537142D02*
X80257200Y-38489523D01*
X80257200Y-38489523D02*
X80304819Y-38346666D01*
X80304819Y-38346666D02*
X80304819Y-38251428D01*
X80304819Y-38251428D02*
X80257200Y-38108571D01*
X80257200Y-38108571D02*
X80161961Y-38013333D01*
X80161961Y-38013333D02*
X80066723Y-37965714D01*
X80066723Y-37965714D02*
X79876247Y-37918095D01*
X79876247Y-37918095D02*
X79733390Y-37918095D01*
X79733390Y-37918095D02*
X79542914Y-37965714D01*
X79542914Y-37965714D02*
X79447676Y-38013333D01*
X79447676Y-38013333D02*
X79352438Y-38108571D01*
X79352438Y-38108571D02*
X79304819Y-38251428D01*
X79304819Y-38251428D02*
X79304819Y-38346666D01*
X79304819Y-38346666D02*
X79352438Y-38489523D01*
X79352438Y-38489523D02*
X79400057Y-38537142D01*
X80304819Y-39489523D02*
X80304819Y-38918095D01*
X80304819Y-39203809D02*
X79304819Y-39203809D01*
X79304819Y-39203809D02*
X79447676Y-39108571D01*
X79447676Y-39108571D02*
X79542914Y-39013333D01*
X79542914Y-39013333D02*
X79590533Y-38918095D01*
X79638152Y-40346666D02*
X80304819Y-40346666D01*
X79257200Y-40108571D02*
X79971485Y-39870476D01*
X79971485Y-39870476D02*
X79971485Y-40489523D01*
X96632857Y-36834819D02*
X96966190Y-36358628D01*
X97204285Y-36834819D02*
X97204285Y-35834819D01*
X97204285Y-35834819D02*
X96823333Y-35834819D01*
X96823333Y-35834819D02*
X96728095Y-35882438D01*
X96728095Y-35882438D02*
X96680476Y-35930057D01*
X96680476Y-35930057D02*
X96632857Y-36025295D01*
X96632857Y-36025295D02*
X96632857Y-36168152D01*
X96632857Y-36168152D02*
X96680476Y-36263390D01*
X96680476Y-36263390D02*
X96728095Y-36311009D01*
X96728095Y-36311009D02*
X96823333Y-36358628D01*
X96823333Y-36358628D02*
X97204285Y-36358628D01*
X96299523Y-35834819D02*
X95680476Y-35834819D01*
X95680476Y-35834819D02*
X96013809Y-36215771D01*
X96013809Y-36215771D02*
X95870952Y-36215771D01*
X95870952Y-36215771D02*
X95775714Y-36263390D01*
X95775714Y-36263390D02*
X95728095Y-36311009D01*
X95728095Y-36311009D02*
X95680476Y-36406247D01*
X95680476Y-36406247D02*
X95680476Y-36644342D01*
X95680476Y-36644342D02*
X95728095Y-36739580D01*
X95728095Y-36739580D02*
X95775714Y-36787200D01*
X95775714Y-36787200D02*
X95870952Y-36834819D01*
X95870952Y-36834819D02*
X96156666Y-36834819D01*
X96156666Y-36834819D02*
X96251904Y-36787200D01*
X96251904Y-36787200D02*
X96299523Y-36739580D01*
X95061428Y-35834819D02*
X94966190Y-35834819D01*
X94966190Y-35834819D02*
X94870952Y-35882438D01*
X94870952Y-35882438D02*
X94823333Y-35930057D01*
X94823333Y-35930057D02*
X94775714Y-36025295D01*
X94775714Y-36025295D02*
X94728095Y-36215771D01*
X94728095Y-36215771D02*
X94728095Y-36453866D01*
X94728095Y-36453866D02*
X94775714Y-36644342D01*
X94775714Y-36644342D02*
X94823333Y-36739580D01*
X94823333Y-36739580D02*
X94870952Y-36787200D01*
X94870952Y-36787200D02*
X94966190Y-36834819D01*
X94966190Y-36834819D02*
X95061428Y-36834819D01*
X95061428Y-36834819D02*
X95156666Y-36787200D01*
X95156666Y-36787200D02*
X95204285Y-36739580D01*
X95204285Y-36739580D02*
X95251904Y-36644342D01*
X95251904Y-36644342D02*
X95299523Y-36453866D01*
X95299523Y-36453866D02*
X95299523Y-36215771D01*
X95299523Y-36215771D02*
X95251904Y-36025295D01*
X95251904Y-36025295D02*
X95204285Y-35930057D01*
X95204285Y-35930057D02*
X95156666Y-35882438D01*
X95156666Y-35882438D02*
X95061428Y-35834819D01*
X93329580Y-32582142D02*
X93377200Y-32534523D01*
X93377200Y-32534523D02*
X93424819Y-32391666D01*
X93424819Y-32391666D02*
X93424819Y-32296428D01*
X93424819Y-32296428D02*
X93377200Y-32153571D01*
X93377200Y-32153571D02*
X93281961Y-32058333D01*
X93281961Y-32058333D02*
X93186723Y-32010714D01*
X93186723Y-32010714D02*
X92996247Y-31963095D01*
X92996247Y-31963095D02*
X92853390Y-31963095D01*
X92853390Y-31963095D02*
X92662914Y-32010714D01*
X92662914Y-32010714D02*
X92567676Y-32058333D01*
X92567676Y-32058333D02*
X92472438Y-32153571D01*
X92472438Y-32153571D02*
X92424819Y-32296428D01*
X92424819Y-32296428D02*
X92424819Y-32391666D01*
X92424819Y-32391666D02*
X92472438Y-32534523D01*
X92472438Y-32534523D02*
X92520057Y-32582142D01*
X93424819Y-33534523D02*
X93424819Y-32963095D01*
X93424819Y-33248809D02*
X92424819Y-33248809D01*
X92424819Y-33248809D02*
X92567676Y-33153571D01*
X92567676Y-33153571D02*
X92662914Y-33058333D01*
X92662914Y-33058333D02*
X92710533Y-32963095D01*
X92424819Y-33867857D02*
X92424819Y-34534523D01*
X92424819Y-34534523D02*
X93424819Y-34105952D01*
D12*
%TO.C,C9*%
X122772400Y-58937000D02*
X122772400Y-54727000D01*
X125792400Y-58937000D02*
X122772400Y-58937000D01*
X125792400Y-54727000D02*
X125792400Y-58937000D01*
%TO.C,R33*%
X73825000Y-26947936D02*
X73825000Y-27402064D01*
X72355000Y-26947936D02*
X72355000Y-27402064D01*
%TO.C,R15*%
X116405000Y-47602936D02*
X116405000Y-48057064D01*
X114935000Y-47602936D02*
X114935000Y-48057064D01*
%TO.C,R31*%
X88020000Y-29102064D02*
X88020000Y-28647936D01*
X89490000Y-29102064D02*
X89490000Y-28647936D01*
%TO.C,C8*%
X119394200Y-58937000D02*
X119394200Y-54727000D01*
X122414200Y-58937000D02*
X119394200Y-58937000D01*
X122414200Y-54727000D02*
X122414200Y-58937000D01*
%TO.C,R6*%
X120225000Y-40807064D02*
X120225000Y-40352936D01*
X121695000Y-40807064D02*
X121695000Y-40352936D01*
D10*
%TO.C,J5*%
X98750000Y-23250000D02*
X98750000Y-26250000D01*
X98750000Y-23250000D02*
X113750000Y-23250000D01*
X98750000Y-36250000D02*
X98750000Y-28750000D01*
X111750000Y-37750000D02*
X109250000Y-37750000D01*
X113750000Y-23250000D02*
X113750000Y-26250000D01*
X113750000Y-36250000D02*
X113750000Y-28750000D01*
D12*
%TO.C,C15*%
X76508748Y-36215000D02*
X77031252Y-36215000D01*
X76508748Y-37685000D02*
X77031252Y-37685000D01*
%TO.C,R35*%
X69745000Y-26947936D02*
X69745000Y-27402064D01*
X68275000Y-26947936D02*
X68275000Y-27402064D01*
%TO.C,C6*%
X129725000Y-71991252D02*
X129725000Y-71468748D01*
X131195000Y-71991252D02*
X131195000Y-71468748D01*
%TO.C,R17*%
X103697064Y-50441600D02*
X103242936Y-50441600D01*
X103697064Y-48971600D02*
X103242936Y-48971600D01*
%TO.C,C16*%
X116750000Y-36340000D02*
X116750000Y-32130000D01*
X119770000Y-36340000D02*
X116750000Y-36340000D01*
X119770000Y-32130000D02*
X119770000Y-36340000D01*
%TO.C,R36*%
X73947936Y-74540000D02*
X74402064Y-74540000D01*
X73947936Y-76010000D02*
X74402064Y-76010000D01*
%TO.C,D1*%
X82150000Y-43300000D02*
X82150000Y-43950000D01*
X82150000Y-43300000D02*
X82150000Y-42650000D01*
X85270000Y-43300000D02*
X85270000Y-44975000D01*
X85270000Y-43300000D02*
X85270000Y-42650000D01*
%TO.C,R27*%
X81900000Y-29102064D02*
X81900000Y-28647936D01*
X83370000Y-29102064D02*
X83370000Y-28647936D01*
%TO.C,R22*%
X107382936Y-44951800D02*
X107837064Y-44951800D01*
X107382936Y-46421800D02*
X107837064Y-46421800D01*
%TO.C,D3*%
X82190000Y-33870000D02*
X82190000Y-33220000D01*
X82190000Y-33870000D02*
X82190000Y-34520000D01*
X79070000Y-33870000D02*
X79070000Y-32195000D01*
X79070000Y-33870000D02*
X79070000Y-34520000D01*
%TO.C,R24*%
X114885000Y-69972936D02*
X114885000Y-70427064D01*
X113415000Y-69972936D02*
X113415000Y-70427064D01*
%TO.C,R26*%
X84485000Y-38012936D02*
X84485000Y-38467064D01*
X83015000Y-38012936D02*
X83015000Y-38467064D01*
%TO.C,C7*%
X116016000Y-58937000D02*
X116016000Y-54727000D01*
X119036000Y-58937000D02*
X116016000Y-58937000D01*
X119036000Y-54727000D02*
X119036000Y-58937000D01*
%TO.C,U3*%
X90430000Y-50620000D02*
X92380000Y-50620000D01*
X90430000Y-50620000D02*
X88480000Y-50620000D01*
X90430000Y-40500000D02*
X93880000Y-40500000D01*
X90430000Y-40500000D02*
X88480000Y-40500000D01*
%TO.C,R37*%
X129372936Y-64515000D02*
X129827064Y-64515000D01*
X129372936Y-65985000D02*
X129827064Y-65985000D01*
%TO.C,R14*%
X120225000Y-44487064D02*
X120225000Y-44032936D01*
X121695000Y-44487064D02*
X121695000Y-44032936D01*
%TO.C,L1*%
X119729622Y-38260000D02*
X118930378Y-38260000D01*
X119729622Y-37140000D02*
X118930378Y-37140000D01*
%TO.C,C18*%
X95038748Y-26967500D02*
X95561252Y-26967500D01*
X95038748Y-28437500D02*
X95561252Y-28437500D01*
%TO.C,R29*%
X74370397Y-27402064D02*
X74370397Y-26947936D01*
X75840397Y-27402064D02*
X75840397Y-26947936D01*
%TO.C,R5*%
X125200000Y-31647936D02*
X125200000Y-32102064D01*
X123730000Y-31647936D02*
X123730000Y-32102064D01*
%TO.C,R16*%
X121695000Y-47685436D02*
X121695000Y-48139564D01*
X120225000Y-47685436D02*
X120225000Y-48139564D01*
%TO.C,R28*%
X83940000Y-29102064D02*
X83940000Y-28647936D01*
X85410000Y-29102064D02*
X85410000Y-28647936D01*
%TO.C,R2*%
X127607064Y-69485000D02*
X127152936Y-69485000D01*
X127607064Y-68015000D02*
X127152936Y-68015000D01*
%TO.C,R23*%
X116836800Y-69972936D02*
X116836800Y-70427064D01*
X115366800Y-69972936D02*
X115366800Y-70427064D01*
%TO.C,R19*%
X103697064Y-46428400D02*
X103242936Y-46428400D01*
X103697064Y-44958400D02*
X103242936Y-44958400D01*
%TO.C,D2*%
X85610000Y-33870000D02*
X85610000Y-33220000D01*
X85610000Y-33870000D02*
X85610000Y-34520000D01*
X82490000Y-33870000D02*
X82490000Y-32195000D01*
X82490000Y-33870000D02*
X82490000Y-34520000D01*
%TO.C,R1*%
X125632936Y-48165000D02*
X126087064Y-48165000D01*
X125632936Y-49635000D02*
X126087064Y-49635000D01*
%TO.C,C10*%
X112637800Y-58937000D02*
X112637800Y-54727000D01*
X115657800Y-58937000D02*
X112637800Y-58937000D01*
X115657800Y-54727000D02*
X115657800Y-58937000D01*
%TO.C,U2*%
X76640000Y-50665000D02*
X78590000Y-50665000D01*
X76640000Y-50665000D02*
X74690000Y-50665000D01*
X76640000Y-41795000D02*
X80090000Y-41795000D01*
X76640000Y-41795000D02*
X74690000Y-41795000D01*
D10*
%TO.C,SD Card*%
X112112000Y-34857800D02*
X102112000Y-34857800D01*
X112112000Y-24857800D02*
X112112000Y-34857800D01*
X112112000Y-24857800D02*
X102112000Y-24857800D01*
X102112000Y-34857800D02*
X102112000Y-24857800D01*
D12*
%TO.C,C13*%
X89835000Y-38111252D02*
X89835000Y-37588748D01*
X91305000Y-38111252D02*
X91305000Y-37588748D01*
%TO.C,R20*%
X107382936Y-48965000D02*
X107837064Y-48965000D01*
X107382936Y-50435000D02*
X107837064Y-50435000D01*
%TO.C,C11*%
X86350000Y-40192500D02*
X86350000Y-35982500D01*
X89370000Y-40192500D02*
X86350000Y-40192500D01*
X89370000Y-35982500D02*
X89370000Y-40192500D01*
%TO.C,R32*%
X85980000Y-29102064D02*
X85980000Y-28647936D01*
X87450000Y-29102064D02*
X87450000Y-28647936D01*
%TO.C,R38*%
X125740000Y-32102064D02*
X125740000Y-31647936D01*
X127210000Y-32102064D02*
X127210000Y-31647936D01*
%TO.C,R21*%
X107392936Y-46965000D02*
X107847064Y-46965000D01*
X107392936Y-48435000D02*
X107847064Y-48435000D01*
%TO.C,L2*%
X94900378Y-29252500D02*
X95699622Y-29252500D01*
X94900378Y-30372500D02*
X95699622Y-30372500D01*
%TO.C,R25*%
X112929200Y-69972936D02*
X112929200Y-70427064D01*
X111459200Y-69972936D02*
X111459200Y-70427064D01*
%TO.C,R13*%
X112015000Y-41717064D02*
X112015000Y-41262936D01*
X113485000Y-41717064D02*
X113485000Y-41262936D01*
%TO.C,C2*%
X123676600Y-40692200D02*
X127886600Y-40692200D01*
X123676600Y-43712200D02*
X123676600Y-40692200D01*
X127886600Y-43712200D02*
X123676600Y-43712200D01*
%TO.C,R34*%
X71785000Y-26947936D02*
X71785000Y-27402064D01*
X70315000Y-26947936D02*
X70315000Y-27402064D01*
%TO.C,C1*%
X123651200Y-44197400D02*
X127861200Y-44197400D01*
X123651200Y-47217400D02*
X123651200Y-44197400D01*
X127861200Y-47217400D02*
X123651200Y-47217400D01*
%TO.C,C12*%
X121085000Y-33541252D02*
X121085000Y-33018748D01*
X122555000Y-33541252D02*
X122555000Y-33018748D01*
%TO.C,C5*%
X113935000Y-47598748D02*
X113935000Y-48121252D01*
X112465000Y-47598748D02*
X112465000Y-48121252D01*
%TO.C,R18*%
X103697064Y-48435000D02*
X103242936Y-48435000D01*
X103697064Y-46965000D02*
X103242936Y-46965000D01*
%TO.C,C14*%
X74320000Y-38260000D02*
X78530000Y-38260000D01*
X74320000Y-41280000D02*
X74320000Y-38260000D01*
X78530000Y-41280000D02*
X74320000Y-41280000D01*
%TO.C,R30*%
X95465000Y-38857064D02*
X95465000Y-38402936D01*
X96935000Y-38857064D02*
X96935000Y-38402936D01*
%TO.C,C17*%
X96810000Y-30802500D02*
X96810000Y-35012500D01*
X93790000Y-30802500D02*
X96810000Y-30802500D01*
X93790000Y-35012500D02*
X93790000Y-30802500D01*
%TD*%
M02*
