M48
; DRILL file {KiCad 7.0.7} date Sun Jul 14 10:36:35 2024
; FORMAT={-:-/ absolute / inch / decimal}
; #@! TF.CreationDate,2024-07-14T10:36:35+05:00
; #@! TF.GenerationSoftware,Kicad,Pcbnew,7.0.7
; #@! TF.FileFunction,Plated,1,2,PTH
FMAT,2
INCH
; #@! TA.AperFunction,Plated,PTH,ComponentDrill
T1C0.0157
; #@! TA.AperFunction,Plated,PTH,ViaDrill
T2C0.0197
; #@! TA.AperFunction,Plated,PTH,ComponentDrill
T3C0.0280
; #@! TA.AperFunction,Plated,PTH,ComponentDrill
T4C0.0315
; #@! TA.AperFunction,Plated,PTH,ComponentDrill
T5C0.0350
; #@! TA.AperFunction,Plated,PTH,ComponentDrill
T6C0.0354
; #@! TA.AperFunction,Plated,PTH,ComponentDrill
T7C0.0394
; #@! TA.AperFunction,Plated,PTH,ComponentDrill
T8C0.0429
; #@! TA.AperFunction,Plated,PTH,ComponentDrill
T9C0.0469
; #@! TA.AperFunction,Plated,PTH,ComponentDrill
T10C0.0512
; #@! TA.AperFunction,Plated,PTH,ComponentDrill
T11C0.0902
; #@! TA.AperFunction,Plated,PTH,ComponentDrill
T12C0.1260
%
G90
G05
T2
X2.4213Y-3.1024
X2.422Y-2.8031
X2.5213Y-2.8075
X2.5276Y-2.0118
X2.6142Y-2.0512
X2.6603Y-2.274
X2.6713Y-2.0906
X2.7717Y-2.2157
X2.9065Y-3.0531
X2.9075Y-2.8508
X2.9193Y-1.5504
X3.0059Y-1.1919
X3.0772Y-1.3154
X3.0859Y-1.2496
X3.1752Y-2.6622
X3.1807Y-1.6327
X3.1807Y-1.9201
X3.2236Y-1.5504
X3.2244Y-1.9689
X3.2244Y-1.8705
X3.2366Y-2.6197
X3.387Y-1.9256
X3.3882Y-1.3579
X3.4555Y-1.3142
X3.5213Y-2.8508
X3.5803Y-1.2496
X3.6213Y-2.576
X3.6256Y-1.5421
X3.6262Y-1.1898
X3.7225Y-1.4722
X3.726Y-1.9075
X3.726Y-1.9689
X3.787Y-1.7689
X3.7874Y-1.5973
X3.8587Y-1.2055
X3.8587Y-1.3287
X3.874Y-2.0118
X3.9193Y-2.2736
X3.9213Y-2.5327
X3.9309Y-2.0473
X3.9812Y-2.0911
X4.0217Y-2.8071
X4.0311Y-2.0496
X4.0701Y-2.2169
X4.1016Y-2.4898
X4.1309Y-2.8504
X4.2291Y-2.4898
X4.3697Y-2.5327
X4.4221Y-2.5756
X4.4795Y-2.6197
X4.5063Y-1.9656
X4.5382Y-2.6621
X4.5489Y-3.016
X4.5491Y-2.8967
X4.563Y-0.9685
X4.563Y-1.0884
X4.7228Y-1.1329
X4.7228Y-1.2733
X4.7228Y-1.9909
X4.7933Y-1.1309
X4.7933Y-1.3976
X4.8248Y-2.0179
X4.8256Y-1.4945
X4.8549Y-2.048
X4.8993Y-2.811
X4.8996Y-1.1217
X5.027Y-1.5585
X5.027Y-1.9885
X5.0929Y-1.2402
X5.0929Y-1.5762
T3
X2.5494Y-2.9888
X2.6494Y-2.9888
X2.7494Y-2.9888
T4
X4.357Y-1.5978
X4.357Y-1.5978
X4.357Y-1.6978
X4.357Y-1.6978
X4.357Y-1.7978
X4.357Y-1.7978
X4.357Y-1.8978
X4.357Y-1.8978
X4.657Y-1.5978
X4.657Y-1.5978
X4.657Y-1.6978
X4.657Y-1.6978
X4.657Y-1.7978
X4.657Y-1.7978
X4.657Y-1.8978
X4.657Y-1.8978
X4.9498Y-0.9793
X4.9498Y-1.1211
T5
X5.1339Y-2.6921
X5.1339Y-2.9559
X5.2319Y-2.6921
X5.2319Y-2.7728
X5.2319Y-2.8752
X5.2319Y-2.9559
T6
X2.4213Y-2.7323
X2.4213Y-2.1496
X2.5213Y-2.7323
X2.5213Y-2.1496
X2.6213Y-2.7323
X2.6213Y-2.1496
X2.7213Y-2.7323
X2.7213Y-2.1496
X2.8213Y-2.7323
X2.8213Y-2.1496
X2.9213Y-2.7323
X2.9213Y-2.1496
X3.0213Y-2.7323
X3.0213Y-2.1496
X3.1213Y-2.7323
X3.1213Y-2.1496
X3.2213Y-2.7323
X3.2213Y-2.1496
X3.3213Y-2.7323
X3.3213Y-2.1496
X3.4213Y-2.7323
X3.4213Y-2.1496
X3.5213Y-2.7323
X3.5213Y-2.1496
X3.6213Y-2.7323
X3.6213Y-2.1496
X3.7213Y-2.7323
X3.7213Y-2.1496
X3.8213Y-2.7323
X3.8213Y-2.1496
X3.9213Y-2.7323
X3.9213Y-2.1496
X4.0213Y-2.7323
X4.0213Y-2.1496
X4.1213Y-2.7323
X4.1213Y-2.1496
X4.2213Y-2.7323
X4.2213Y-2.1496
X4.3213Y-2.7323
X4.3213Y-2.1496
X5.007Y-2.0587
X5.007Y-2.1587
X5.0118Y-2.388
X5.0118Y-2.488
T7
X2.468Y-2.3435
X2.468Y-2.5226
X4.511Y-2.5075
X4.611Y-2.5075
X4.6114Y-2.3975
X4.6114Y-2.6175
X4.711Y-2.5075
X4.7114Y-2.3975
X4.7114Y-2.6175
X4.811Y-2.5075
X4.8114Y-2.3975
X4.8114Y-2.6175
T8
X5.1587Y-1.1945
X5.1587Y-1.3035
X5.1587Y-1.4126
X5.1587Y-1.5217
X5.1587Y-1.6307
X5.2705Y-1.249
X5.2705Y-1.3581
X5.2705Y-1.4671
X5.2705Y-1.5762
T9
X2.6165Y-1.2266
X2.6165Y-1.3167
X2.6165Y-1.4069
X2.6165Y-1.497
X2.6165Y-1.5872
X2.7165Y-1.2715
X2.7165Y-1.3616
X2.7165Y-1.4518
X2.7165Y-1.5419
X2.7165Y-1.6321
X2.8165Y-1.2266
X2.8165Y-1.3167
X2.8165Y-1.4069
X2.8165Y-1.497
X2.8165Y-1.5872
T10
X2.5664Y-2.2953
X2.5664Y-2.5709
T11
X5.35Y-2.5579
X5.35Y-3.0902
X5.3819Y-2.824
T12
X5.2146Y-0.9207
X5.2146Y-1.9045
T1
G00X5.1736Y-2.0831
M15
G01X5.1343Y-2.0831
M16
G05
G00X5.1736Y-2.1815
M15
G01X5.1343Y-2.1815
M16
G05
G00X5.1343Y-2.3783
M15
G01X5.1736Y-2.3783
M16
G05
G00X5.1343Y-2.4768
M15
G01X5.1736Y-2.4768
M16
G05
G00X5.3508Y-2.2996
M15
G01X5.3508Y-2.2602
M16
G05
T0
M30
